<?xml version="1.0" encoding="utf-8"?>
<svg viewBox="0 0 512 512" xmlns="http://www.w3.org/2000/svg">
  <path d="M 12.836 88.992 L 12.836 11.541 L 68.176 11.541 L 68.176 22.66 L 79.295 22.66 L 79.295 33.778 L 90.414 33.778 L 90.414 67.008 L 79.295 67.008 L 79.295 78.126 L 68.176 78.126 L 68.176 89.245 L 12.836 89.245 L 12.836 88.992 Z M 34.947 77.874 L 57.058 77.874 L 57.058 66.755 L 68.176 66.755 L 68.176 33.652 L 57.058 33.652 L 57.058 22.533 L 34.947 22.533 L 34.947 77.874 Z M 426.694 192.062 L 426.694 180.943 L 448.805 180.943 L 448.805 125.729 L 426.694 125.729 L 426.694 114.61 L 493.027 114.61 L 493.027 125.729 L 470.916 125.729 L 470.916 181.069 L 493.027 181.069 L 493.027 192.187 L 426.694 192.187 L 426.694 192.062 Z M 23.848 294.746 L 23.848 283.627 L 12.729 283.627 L 12.729 272.635 L 34.839 272.635 L 34.839 283.753 L 68.068 283.753 L 68.068 261.643 L 23.848 261.643 L 23.848 250.524 L 12.729 250.524 L 12.729 228.413 L 23.848 228.413 L 23.848 217.294 L 79.187 217.294 L 79.187 228.413 L 90.306 228.413 L 90.306 239.532 L 68.068 239.532 L 68.068 228.413 L 34.839 228.413 L 34.839 250.524 L 79.062 250.524 L 79.062 261.643 L 90.179 261.643 L 90.179 283.753 L 79.062 283.753 L 79.062 294.871 L 23.848 294.871 L 23.848 294.746 Z M 113.242 295.202 L 113.242 217.751 L 135.353 217.751 L 135.353 250.98 L 168.583 250.98 L 168.583 217.751 L 190.692 217.751 L 190.692 295.202 L 168.583 295.202 L 168.583 261.974 L 135.353 261.974 L 135.353 295.202 L 113.242 295.202 Z M 319.326 295.154 L 319.326 217.704 L 385.659 217.704 L 385.659 228.822 L 396.777 228.822 L 396.777 250.934 L 385.659 250.934 L 385.659 262.051 L 396.777 262.051 L 396.777 284.162 L 385.659 284.162 L 385.659 295.281 L 319.326 295.281 L 319.326 295.154 Z M 341.437 250.934 L 374.666 250.934 L 374.666 228.822 L 341.437 228.822 L 341.437 250.934 Z M 341.437 284.162 L 374.666 284.162 L 374.666 262.051 L 341.437 262.051 L 341.437 284.162 Z M 449.677 295.522 L 449.677 262.292 L 438.558 262.292 L 438.558 251.174 L 427.567 251.174 L 427.567 218.072 L 449.677 218.072 L 449.677 251.3 L 471.788 251.3 L 471.788 218.072 L 493.9 218.072 L 493.9 251.3 L 482.781 251.3 L 482.781 262.419 L 471.788 262.419 L 471.788 295.522 L 449.677 295.522 Z M 40.128 397.164 L 40.128 330.833 L 18.016 330.833 L 18.016 319.714 L 84.348 319.714 L 84.348 330.833 L 62.237 330.833 L 62.237 397.164 L 40.128 397.164 Z M 114.029 397.37 L 114.029 319.918 L 191.481 319.918 L 191.481 331.037 L 136.139 331.037 L 136.139 353.147 L 180.362 353.147 L 180.362 364.267 L 136.139 364.267 L 136.139 386.377 L 191.481 386.377 L 191.481 397.495 L 114.029 397.495 L 114.029 397.37 Z M 228.121 397.495 L 228.121 386.503 L 217.002 386.503 L 217.002 375.385 L 239.113 375.385 L 239.113 386.503 L 272.343 386.503 L 272.343 364.392 L 228.121 364.392 L 228.121 353.274 L 217.002 353.274 L 217.002 331.163 L 228.121 331.163 L 228.121 320.044 L 283.46 320.044 L 283.46 331.163 L 294.579 331.163 L 294.579 342.281 L 272.469 342.281 L 272.469 331.163 L 239.239 331.163 L 239.239 353.274 L 283.46 353.274 L 283.46 364.392 L 294.579 364.392 L 294.579 386.503 L 283.46 386.503 L 283.46 397.495 L 228.121 397.495 Z M 125.537 89.574 L 125.537 78.456 L 114.418 78.456 L 114.418 23.242 L 125.537 23.242 L 125.537 12.123 L 180.877 12.123 L 180.877 23.242 L 191.995 23.242 L 191.995 78.582 L 180.877 78.582 L 180.877 89.701 L 125.537 89.701 L 125.537 89.574 Z M 136.528 78.456 L 169.758 78.456 L 169.758 23.242 L 136.528 23.242 L 136.528 78.456 Z M 238.004 88.992 L 238.004 77.874 L 226.885 77.874 L 226.885 66.755 L 215.768 66.755 L 215.768 33.652 L 226.885 33.652 L 226.885 22.533 L 238.004 22.533 L 238.004 11.541 L 293.346 11.541 L 293.346 22.66 L 249.123 22.66 L 249.123 33.778 L 238.004 33.778 L 238.004 67.008 L 249.123 67.008 L 249.123 78.126 L 271.234 78.126 L 271.234 55.763 L 260.116 55.763 L 260.116 44.644 L 293.346 44.644 L 293.346 88.866 L 238.004 88.866 L 238.004 88.992 Z M 319.578 88.992 L 319.578 11.541 L 397.028 11.541 L 397.028 22.66 L 341.688 22.66 L 341.688 44.771 L 385.909 44.771 L 385.909 55.889 L 341.688 55.889 L 341.688 78 L 397.028 78 L 397.028 89.119 L 319.578 89.119 L 319.578 88.992 Z M 12.205 191.869 L 12.205 114.544 L 78.538 114.544 L 78.538 125.661 L 89.53 125.661 L 89.53 147.773 L 78.412 147.773 L 78.412 158.891 L 89.53 158.891 L 89.53 180.875 L 78.412 180.875 L 78.412 191.995 L 12.205 191.995 L 12.205 191.869 Z M 34.316 147.647 L 67.545 147.647 L 67.545 125.536 L 34.316 125.536 L 34.316 147.647 Z M 34.316 180.875 L 67.545 180.875 L 67.545 158.766 L 34.316 158.766 L 34.316 180.875 Z M 124.606 191.869 L 124.606 180.875 L 113.487 180.875 L 113.487 114.544 L 135.597 114.544 L 135.597 180.875 L 168.827 180.875 L 168.827 114.544 L 190.939 114.544 L 190.939 180.875 L 179.82 180.875 L 179.82 191.995 L 124.606 191.995 L 124.606 191.869 Z M 323.838 192.657 L 323.838 115.204 L 345.948 115.204 L 345.948 181.538 L 390.17 181.538 L 390.17 192.657 L 323.838 192.657 Z M 222.272 191.995 L 222.272 114.67 L 244.383 114.67 L 244.383 181.003 L 288.605 181.003 L 288.605 192.121 L 222.272 192.121 L 222.272 191.995 Z" style=""/>
</svg>