<?xml version="1.0" encoding="utf-8"?>
<svg viewBox="0 0 512 512" xmlns="http://www.w3.org/2000/svg">
  <title>cbSpace</title>
  <path d="M 37.449 32.942 C 37.464 38.534 38.604 44.066 40.801 49.208 C 43.081 54.631 45.94 59.794 49.327 64.604 C 52.795 69.546 56.645 74.208 60.844 78.546 C 65.072 82.916 69.176 86.844 73.156 90.331 L 55.567 90.331 C 51.428 86.699 47.591 82.736 44.096 78.481 C 40.298 73.915 36.86 69.062 33.811 63.965 C 30.821 58.992 28.322 53.74 26.349 48.282 C 24.493 43.298 23.518 38.03 23.47 32.711 C 23.46 29.694 23.836 26.689 24.591 23.768 C 25.283 21.004 26.573 18.425 28.368 16.214 C 30.304 13.933 32.753 12.143 35.515 10.992 C 39.042 9.572 42.824 8.897 46.624 9.011 L 70.833 9.011 L 70.833 36.081 L 58.455 36.081 L 58.455 12.733 L 55.891 12.733 C 52.534 12.607 49.185 13.138 46.031 14.297 C 43.81 15.168 41.872 16.635 40.43 18.538 C 39.105 20.438 38.263 22.634 37.977 24.935 C 37.614 27.588 37.437 30.264 37.449 32.942 Z M 187.934 81.225 C 188.654 80.791 189.422 80.44 190.22 80.179 L 190.378 80.179 C 190.693 80.179 190.85 80.355 190.85 80.698 C 190.85 80.892 190.406 81.457 189.498 82.383 C 188.591 83.308 187.508 84.345 186.24 85.502 C 184.971 86.66 183.731 87.734 182.537 88.733 C 181.654 89.501 180.727 90.215 179.759 90.872 C 177.255 92.37 176.302 90.547 171.594 90.992 C 169.37 91.202 167.83 87.419 166.039 83.734 C 164.06 79.603 162.575 75.252 161.614 70.774 L 160.688 66.663 L 157.402 69.903 C 156.415 70.866 155.078 72.178 153.393 73.838 C 151.718 75.495 150.079 77.124 148.487 78.744 C 146.894 80.364 145.098 82.096 143.182 83.947 C 141.266 85.799 139.664 87.317 138.359 88.511 C 137.142 89.714 135.83 90.816 134.434 91.807 C 133.719 92.364 132.85 92.687 131.943 92.733 L 131.193 92.733 C 130.326 92.599 129.485 92.327 128.703 91.927 C 126.286 90.947 124.31 89.116 123.148 86.78 C 121.867 84.276 120.998 81.581 120.575 78.8 C 120.203 76.314 120.007 73.805 119.992 71.292 L 119.992 70.709 C 120.096 58.763 123.061 47.018 128.638 36.455 C 131.317 31.548 134.597 26.995 138.405 22.902 C 142.145 18.87 146.095 15.038 150.236 11.422 C 150.502 11.214 150.749 10.985 150.977 10.737 C 151.604 10.087 152.295 9.504 153.042 8.997 C 153.556 8.591 154.192 8.37 154.847 8.367 C 155.025 8.367 155.201 8.386 155.374 8.423 C 158.998 9.159 162.108 11.465 163.864 14.718 C 165.752 18.206 167.007 22.002 167.567 25.929 C 168.184 29.718 168.601 33.538 168.817 37.372 C 169.205 42.377 169.542 46.481 169.826 49.684 C 169.894 51.415 170.108 53.137 170.465 54.832 C 170.923 54.671 171.35 54.436 171.733 54.137 C 172.436 53.675 173.344 53.054 174.436 52.286 C 175.528 51.518 176.473 50.897 177.213 50.434 C 177.616 50.15 178.063 49.937 178.537 49.805 L 178.593 49.805 C 178.76 49.899 178.863 50.076 178.861 50.268 C 178.771 50.694 178.569 51.09 178.278 51.416 C 177.251 52.599 176.134 53.701 174.936 54.711 C 174.669 54.924 174.419 55.156 174.186 55.406 C 173.277 56.109 172.459 56.924 171.751 57.831 C 171.359 58.346 171.152 58.979 171.168 59.627 C 171.168 59.785 171.168 60.136 171.27 60.692 C 171.507 61.916 171.816 63.124 172.196 64.312 C 172.298 64.691 172.409 65.099 172.51 65.524 C 173.465 69.126 174.809 72.611 176.519 75.921 C 178.093 78.895 179.62 80.802 181.102 81.642 C 182.026 82.098 183.043 82.335 184.073 82.336 C 185.433 82.293 186.76 81.911 187.934 81.225 Z M 156.532 67.413 L 160.142 63.997 L 159.818 61.284 C 159.714 60.433 159.547 58.699 159.318 56.082 C 159.091 53.464 158.868 50.555 158.652 47.352 C 158.615 47.2 158.596 47.044 158.596 46.889 C 158.531 46.009 158.457 45.083 158.383 44.111 C 158.242 40.86 157.932 37.619 157.457 34.4 C 157.017 31.257 156.08 28.204 154.68 25.355 C 153.281 22.56 151.072 20.253 148.339 18.736 C 148.036 18.523 147.697 18.367 147.339 18.273 C 147.273 18.239 147.201 18.219 147.126 18.218 C 146.892 18.236 146.669 18.327 146.487 18.477 C 146.057 18.806 145.648 19.166 145.265 19.551 C 141.766 22.784 138.646 27.802 135.906 34.604 C 133.094 41.699 131.217 49.131 130.323 56.711 C 130.082 58.763 129.957 60.828 129.953 62.895 C 129.818 67.913 130.834 72.894 132.925 77.458 C 134.227 80.383 136.696 82.309 140.331 83.234 C 141.018 82.661 141.664 82.043 142.266 81.383 C 143.451 80.207 144.932 78.744 146.7 77.013 C 148.468 75.282 150.283 73.449 152.134 71.644 L 156.532 67.413 Z M 275.484 91.958 C 272.697 92.603 269.847 92.932 266.985 92.939 L 265.365 92.837 C 264.736 92.763 264.291 91.911 264.032 90.356 C 263.743 88.159 263.617 85.943 263.653 83.728 L 263.754 78.756 C 263.81 77.83 263.847 76.377 263.847 74.516 C 263.847 71.14 262.184 66.533 258.857 60.694 C 255.504 54.823 251.538 49.325 247.026 44.29 C 246.958 50.227 246.928 58.127 246.933 67.989 L 246.933 72.544 C 246.901 76.091 247.074 79.637 247.452 83.163 C 247.638 85.524 248.37 87.808 249.59 89.838 C 250.103 90.597 248.9 91.303 245.98 91.958 C 243.208 92.597 240.373 92.927 237.527 92.939 L 235.907 92.837 C 234.769 92.763 234.204 89.838 234.204 84.042 C 234.204 82.524 234.259 80.45 234.389 77.83 L 234.482 73.276 L 234.676 68.508 C 234.738 65.965 234.911 60.102 235.195 50.918 C 235.479 41.735 235.624 35.282 235.63 31.56 C 235.7 28.12 235.555 24.678 235.195 21.257 C 234.863 19.158 234.07 17.16 232.871 15.406 C 232.491 14.786 233.074 13.925 234.63 12.823 C 236.4 11.603 238.315 10.61 240.333 9.87 C 242.08 9.099 243.978 8.728 245.887 8.787 C 247.03 8.849 247.6 12.02 247.6 18.303 C 247.6 20.099 247.535 22.309 247.405 24.932 L 247.313 28.45 L 247.118 37.976 C 253.735 42.445 259.605 47.927 264.514 54.223 C 264.828 44.429 264.986 36.874 264.986 31.56 C 264.986 27.765 264.955 25.124 264.893 23.636 C 264.838 22.205 264.63 20.783 264.273 19.396 C 263.879 17.956 263.219 16.604 262.329 15.406 C 261.949 14.786 262.532 13.925 264.088 12.823 C 265.854 11.603 267.767 10.61 269.781 9.87 C 271.53 9.099 273.427 8.73 275.336 8.787 C 276.472 8.849 277.043 12.02 277.049 18.303 C 277.049 20.099 276.984 22.309 276.854 24.932 L 276.762 28.45 C 276.694 30.665 276.599 36.72 276.475 46.613 C 276.351 56.507 276.287 64.15 276.28 69.545 C 276.28 74.723 276.441 78.966 276.762 82.274 C 277.083 85.582 277.842 88.104 279.039 89.838 C 279.552 90.597 278.367 91.303 275.484 91.958 Z M 358.003 92.21 C 351.721 88.507 347.042 81.274 343.968 70.51 C 343.542 69.068 343.232 67.595 343.042 66.103 C 342.832 64.049 342.73 61.984 342.737 59.919 C 342.737 58.993 342.681 58.067 342.681 57.234 C 342.622 51.761 343.54 46.321 345.394 41.172 C 346.658 37.572 348.317 34.122 350.337 30.887 C 352.406 27.554 354.276 25.332 355.948 24.221 C 356.355 23.99 356.559 23.805 356.559 23.657 C 356.559 23.286 355.531 23.009 353.485 22.823 C 352.559 22.749 351.226 22.555 349.467 22.24 C 347.708 21.925 345.959 21.574 344.218 21.203 C 341.652 20.571 339.028 20.199 336.386 20.092 L 335.877 20.092 C 334.007 20.201 332.193 20.773 330.6 21.759 C 329.809 22.293 328.923 22.672 327.989 22.879 C 327.851 22.879 327.786 22.805 327.786 22.657 C 327.786 22.249 328.637 21.188 330.341 19.472 C 334.71 15.01 337.877 12.455 339.839 11.807 C 341.527 11.205 343.299 10.874 345.088 10.825 C 347.701 10.888 350.297 11.264 352.819 11.946 C 356.862 12.855 360.96 13.507 365.085 13.899 C 368.381 14.158 370.806 14.288 372.38 14.288 C 374.163 14.314 375.944 14.183 377.703 13.899 C 378.471 13.704 379.225 13.463 379.962 13.177 C 380.782 12.877 381.586 12.534 382.369 12.149 C 382.944 11.858 383.535 11.598 384.137 11.372 C 384.434 11.253 384.746 11.178 385.063 11.149 C 385.136 11.14 385.209 11.161 385.267 11.205 C 385.382 11.278 385.458 11.401 385.47 11.538 C 385.488 11.592 385.488 11.65 385.47 11.705 C 385.28 12.099 385.019 12.457 384.702 12.76 C 384.258 13.251 383.536 13.936 382.554 14.825 C 382.11 15.241 381.628 15.667 381.221 16.112 C 379.28 18.164 377.053 19.929 374.611 21.351 C 372.725 22.267 370.702 22.871 368.621 23.138 C 366.549 23.399 364.463 23.547 362.372 23.583 L 360.021 23.694 L 358.336 26.934 C 354.494 34.218 352.522 42.342 352.596 50.578 L 352.596 51.032 C 352.52 56.95 353.617 62.825 355.827 68.316 C 357.263 72.135 359.339 75.682 361.965 78.805 C 364.478 81.681 366.996 83.418 369.519 84.017 C 369.67 84.059 369.827 84.078 369.982 84.072 C 370.357 84.065 370.725 83.97 371.056 83.795 C 371.97 83.224 372.829 82.571 373.621 81.841 C 374.608 81.027 375.358 80.434 375.87 80.064 C 376.177 79.79 376.545 79.595 376.944 79.499 C 377.184 79.503 377.392 79.666 377.453 79.897 L 377.453 80.008 C 377.453 80.675 374.759 83.424 369.371 88.257 C 366.437 90.979 364.474 92.497 363.502 92.83 C 362.793 93.114 362.043 93.286 361.28 93.339 C 360.109 93.281 358.979 92.889 358.021 92.21 L 358.003 92.21 Z M 155.638 398.349 C 149.361 394.646 144.686 387.416 141.613 376.658 C 141.189 375.216 140.879 373.742 140.687 372.251 C 140.52 370.838 140.418 368.773 140.381 366.058 C 140.381 365.132 140.326 364.207 140.326 363.383 C 140.311 361.032 140.466 358.683 140.789 356.356 C 141.248 353.275 142.004 350.246 143.048 347.311 C 144.306 343.71 145.961 340.261 147.982 337.026 C 150.05 333.693 151.92 331.471 153.592 330.36 C 153.999 330.138 154.203 329.953 154.203 329.805 C 154.203 329.425 153.185 329.148 151.13 328.962 C 150.204 328.888 148.871 328.694 147.112 328.379 C 145.353 328.064 143.603 327.722 141.863 327.342 C 139.296 326.71 136.673 326.338 134.031 326.231 L 133.521 326.231 C 131.65 326.338 129.836 326.915 128.245 327.907 C 127.451 328.436 126.566 328.812 125.634 329.018 C 125.495 329.018 125.43 328.944 125.43 328.796 C 125.43 328.388 126.282 327.324 127.985 325.62 C 132.355 321.158 135.521 318.6 137.484 317.946 C 139.171 317.347 140.943 317.019 142.733 316.974 C 145.345 317.032 147.94 317.405 150.463 318.085 C 154.506 318.997 158.603 319.65 162.729 320.038 C 166.025 320.297 168.457 320.427 170.025 320.427 C 171.808 320.453 173.589 320.322 175.348 320.038 C 176.115 319.843 176.87 319.602 177.607 319.316 C 178.43 319.011 179.235 318.656 180.014 318.251 C 180.585 317.959 181.173 317.699 181.773 317.474 C 182.07 317.355 182.381 317.28 182.698 317.251 C 182.771 317.241 182.845 317.262 182.902 317.307 C 183.018 317.38 183.094 317.503 183.106 317.64 C 183.128 317.694 183.128 317.753 183.106 317.807 C 182.918 318.206 182.657 318.567 182.337 318.872 C 181.893 319.353 181.18 320.038 180.189 320.936 C 179.745 321.343 179.301 321.769 178.856 322.214 C 176.913 324.267 174.688 326.034 172.246 327.463 C 170.359 328.373 168.336 328.973 166.257 329.24 C 164.187 329.504 162.104 329.656 160.017 329.694 L 157.656 329.805 L 155.888 333.036 C 152.045 340.323 150.073 348.451 150.148 356.689 L 150.148 357.134 C 150.071 363.055 151.169 368.933 153.379 374.427 C 154.839 378.257 156.94 381.81 159.591 384.934 C 162.104 387.823 164.618 389.563 167.136 390.156 C 167.288 390.194 167.443 390.212 167.599 390.211 C 167.974 390.204 168.341 390.109 168.673 389.934 C 169.587 389.362 170.445 388.709 171.237 387.98 C 172.228 387.156 172.978 386.564 173.487 386.194 C 173.794 385.922 174.163 385.732 174.561 385.638 C 174.801 385.637 175.013 385.795 175.079 386.027 L 175.079 386.138 C 175.079 386.805 172.382 389.557 166.988 394.396 C 164.057 397.106 162.104 398.629 161.128 398.969 C 160.414 399.247 159.661 399.416 158.897 399.469 C 157.726 399.417 156.594 399.028 155.638 398.349 Z M 460.92 92.895 C 457.241 92.907 453.63 91.911 450.477 90.015 C 447.042 87.924 444.132 85.075 441.969 81.684 C 439.355 77.568 437.44 73.047 436.303 68.306 C 434.876 62.481 434.188 56.5 434.257 50.504 C 434.186 44.525 434.873 38.562 436.303 32.757 C 437.448 28.035 439.363 23.534 441.969 19.435 C 444.136 16.023 447.044 13.143 450.477 11.01 C 456.882 7.073 464.958 7.073 471.362 11.01 C 474.796 13.143 477.704 16.023 479.87 19.435 C 482.477 23.534 484.391 28.035 485.536 32.757 C 486.971 38.545 487.661 44.494 487.591 50.457 C 487.666 56.454 486.978 62.436 485.545 68.26 C 484.411 73.017 482.493 77.555 479.87 81.684 C 477.708 85.075 474.798 87.924 471.362 90.015 C 468.21 91.911 464.599 92.907 460.92 92.895 Z M 460.92 88.886 C 462.999 88.797 464.936 87.807 466.224 86.174 C 468.133 83.894 469.594 81.274 470.529 78.453 C 471.886 74.55 472.835 70.516 473.362 66.418 C 474.696 55.85 474.696 45.157 473.362 34.59 C 472.843 30.451 471.895 26.376 470.529 22.434 C 469.594 19.613 468.133 16.993 466.224 14.713 C 463.612 11.098 458.228 11.098 455.615 14.713 C 453.707 16.991 452.249 19.612 451.319 22.434 C 449.951 26.354 448.998 30.406 448.477 34.525 C 447.778 39.8 447.447 45.117 447.487 50.439 C 447.448 55.76 447.778 61.078 448.477 66.353 C 449.003 70.452 449.956 74.486 451.319 78.388 C 452.249 81.21 453.707 83.831 455.615 86.109 C 456.892 87.766 458.83 88.781 460.92 88.886 Z M 160.831 145.323 C 163.183 148.582 165.547 151.739 167.923 154.794 C 170.299 157.849 172.459 160.888 174.403 163.913 C 176.23 166.749 177.8 169.741 179.097 172.856 C 180.291 175.649 180.921 178.65 180.948 181.687 C 180.948 185.643 180.112 188.643 178.44 190.686 C 176.773 192.741 174.153 193.769 170.608 193.769 L 133.364 193.769 L 133.364 112.449 L 168.441 112.449 C 171.007 112.343 173.536 113.078 175.644 114.541 C 177.499 115.88 178.559 118.06 178.467 120.346 C 178.407 122.673 177.825 124.957 176.764 127.03 C 175.547 129.515 174.08 131.869 172.385 134.057 C 170.638 136.364 168.713 138.53 166.627 140.537 C 164.825 142.284 162.888 143.884 160.831 145.323 Z M 159.285 190.047 C 164.544 190.047 167.173 187.106 167.173 181.225 C 167.182 177.951 166.768 174.69 165.942 171.522 C 165.129 168.39 164.08 165.323 162.803 162.348 C 161.48 159.321 159.997 156.367 158.36 153.498 C 156.73 150.591 155.114 147.647 153.509 144.666 C 151.916 141.685 150.398 138.648 148.982 135.547 C 147.536 132.399 146.359 129.135 145.464 125.789 L 145.677 190.029 L 159.285 190.047 Z M 147.019 116.171 C 147.591 120.841 148.963 125.379 151.074 129.585 C 153.251 133.961 155.745 138.172 158.536 142.185 C 160.359 139.735 161.897 137.087 163.118 134.288 C 164.448 131.346 165.346 128.228 165.784 125.03 C 166.21 122.012 165.714 119.788 164.294 118.356 C 162.646 116.838 160.448 116.061 158.212 116.208 L 147.019 116.171 Z M 466.786 248.247 C 469.125 251.494 471.489 254.651 473.877 257.718 C 476.266 260.785 478.427 263.825 480.358 266.837 C 482.181 269.675 483.751 272.667 485.051 275.78 C 486.226 278.576 486.84 281.578 486.857 284.611 C 486.857 288.555 486.023 291.564 484.357 293.61 C 482.691 295.656 480.071 296.693 476.516 296.693 L 439.3 296.693 L 439.3 215.373 L 474.386 215.373 C 476.949 215.267 479.475 216.002 481.58 217.465 C 483.439 218.801 484.501 220.983 484.403 223.27 C 484.33 225.602 483.729 227.888 482.644 229.954 C 481.431 232.439 479.966 234.793 478.275 236.981 C 476.528 239.288 474.602 241.454 472.516 243.461 C 470.732 245.2 468.816 246.8 466.786 248.247 Z M 465.184 292.971 C 470.443 292.971 473.072 290.03 473.072 284.149 C 473.079 280.876 472.669 277.615 471.85 274.446 C 471.032 271.311 469.98 268.241 468.702 265.263 C 467.409 262.244 465.95 259.299 464.333 256.44 C 462.691 253.533 461.074 250.589 459.482 247.608 C 457.889 244.627 456.377 241.588 454.945 238.49 C 453.508 235.339 452.331 232.075 451.427 228.732 L 451.64 292.971 L 465.184 292.971 Z M 452.918 219.085 C 453.5 223.757 454.871 228.296 456.973 232.509 C 459.154 236.883 461.648 241.094 464.434 245.109 C 466.278 242.664 467.831 240.014 469.063 237.212 C 470.393 234.27 471.291 231.152 471.73 227.954 C 472.155 224.936 471.655 222.705 470.23 221.28 C 468.587 219.759 466.392 218.978 464.157 219.123 L 452.918 219.085 Z M 268.715 115.366 L 280.657 115.366 L 280.657 196.686 L 250.051 196.686 C 244.497 196.686 240.284 195.096 237.415 191.918 C 234.545 188.74 233.107 184.095 233.101 177.985 C 233.129 173.045 233.864 168.135 235.285 163.404 C 236.778 158.282 238.634 153.274 240.84 148.416 C 243.117 143.417 245.608 138.443 248.311 133.493 C 251.014 128.543 253.643 123.742 256.198 119.088 L 236.294 119.088 L 236.294 115.385 L 262.744 115.385 C 260.609 120.81 258.563 125.92 256.606 130.715 C 254.65 135.511 252.962 140.334 251.542 145.185 C 250.108 150.09 248.97 155.076 248.135 160.118 C 247.249 165.671 246.819 171.287 246.848 176.911 C 246.848 182.021 247.737 185.972 249.514 188.761 C 251.292 191.55 254.529 192.943 259.226 192.936 L 268.289 192.936 L 268.715 115.366 Z M 380.026 196.139 L 349.624 196.139 C 349.063 196.218 348.497 196.251 347.93 196.241 C 347.459 196.252 346.988 196.218 346.523 196.139 C 345.449 196.065 344.921 193.13 344.921 187.316 C 344.921 185.613 345.014 182.086 345.199 176.763 C 345.897 153.044 346.242 138.757 346.236 133.899 C 346.3 130.887 346.158 127.875 345.81 124.882 C 345.48 122.914 344.691 121.053 343.505 119.448 C 343.135 118.837 343.709 117.976 345.245 116.884 C 347.001 115.68 348.897 114.698 350.892 113.958 C 352.64 113.188 354.539 112.821 356.447 112.884 C 357.577 112.959 358.141 115.995 358.141 122.013 C 358.141 123.79 358.08 126.046 357.956 128.78 L 357.854 132.261 C 357.799 137.815 357.722 144.96 357.623 153.692 C 357.525 162.425 357.478 169.122 357.484 173.782 C 357.484 177.549 357.577 180.753 357.762 183.419 C 357.895 185.742 358.274 188.044 358.891 190.288 L 370.093 190.288 C 372.83 184.937 374.406 179.07 374.722 173.069 C 374.851 171.43 375.314 170.606 376.138 170.606 C 376.823 170.606 377.36 171.152 377.731 172.245 C 378.937 175.843 379.944 179.506 380.749 183.215 C 382.063 188.77 382.72 192.803 382.72 195.315 C 382.637 195.861 381.776 196.139 380.026 196.139 Z M 78.618 315.798 C 81.182 315.798 82.469 316.141 82.469 316.826 C 82.469 319.295 81.827 323.242 80.543 328.667 C 79.26 334.092 78.242 337.869 77.488 339.998 C 77.333 340.417 77.09 340.8 76.775 341.118 C 76.576 341.357 76.289 341.507 75.979 341.535 C 75.564 341.513 75.19 341.278 74.988 340.915 C 74.662 340.352 74.483 339.714 74.47 339.063 C 74.228 333.488 72.775 328.033 70.212 323.075 C 67.823 325.741 65.753 329.775 64 335.175 C 62.291 340.978 61.052 346.91 60.297 352.913 C 59.266 360.423 58.56 367.463 58.177 374.029 C 57.979 376.77 57.884 379.605 57.89 382.537 C 57.89 388.974 58.674 393.35 60.241 395.665 C 60.741 396.417 59.565 397.118 56.714 397.766 C 53.951 398.404 51.126 398.73 48.289 398.738 L 46.688 398.636 C 45.688 398.569 45.188 396.38 45.188 392.073 C 45.188 389.344 45.438 385.074 45.938 379.26 C 46.321 374.002 46.916 368.635 47.725 363.161 C 46.748 363.655 45.703 364.002 44.623 364.188 C 43.71 364.381 42.78 364.483 41.846 364.494 C 38.906 364.573 36.172 362.986 34.782 360.393 C 33.689 358.48 32.852 356.432 32.292 354.301 C 31.7 352.079 31.144 349.422 30.644 346.349 C 30.394 344.988 30.218 343.775 30.126 342.711 C 30.033 341.646 29.922 340.785 29.802 340.1 C 29.043 334.971 28.54 331.759 28.293 330.463 C 28.225 330.117 28.068 329.229 27.821 327.796 C 27.61 326.517 27.231 325.272 26.691 324.093 C 26.34 323.194 25.686 322.447 24.84 321.983 C 24.34 321.779 24.386 321.427 24.978 320.909 C 25.601 320.379 26.263 319.899 26.96 319.474 C 27.407 319.22 27.831 318.929 28.228 318.604 C 28.543 318.465 29.45 317.974 30.959 317.113 C 32.148 316.36 33.508 315.921 34.912 315.836 C 35.203 315.858 35.487 315.926 35.754 316.039 C 36.938 316.51 37.864 317.463 38.3 318.659 C 38.919 320.34 39.389 322.072 39.707 323.834 C 40.146 326.019 40.679 329.367 41.309 333.879 C 41.559 336.064 41.781 337.711 41.966 338.804 C 42.53 342.777 43.306 346.717 44.29 350.607 C 45.197 353.989 46.627 356.4 48.576 357.838 C 52.403 336.372 58.615 323.214 67.212 318.363 L 67.49 318.159 C 68.468 317.614 69.514 317.199 70.6 316.928 C 71.293 316.658 72.019 316.484 72.757 316.41 L 72.859 316.41 C 74.751 315.999 76.682 315.795 78.618 315.798 Z M 279.543 372.456 C 279.551 374.267 279.266 376.068 278.701 377.789 C 277.684 381.92 275.533 385.685 272.489 388.657 C 269.364 391.618 265.829 394.113 261.991 396.063 C 258.518 397.965 254.653 399.043 250.696 399.211 C 250.503 399.225 250.308 399.19 250.132 399.109 C 249.817 399.109 249.669 399.109 249.669 399.007 C 249.206 396.754 248.511 394.554 247.595 392.444 C 246.651 390.259 245.417 387.766 243.892 384.963 C 242.055 381.7 240.482 378.294 239.189 374.78 C 237.06 368.551 235.944 362.022 235.884 355.441 C 235.871 352.622 236.09 349.807 236.541 347.025 C 237.222 343.059 238.47 339.212 240.244 335.601 C 241.875 332.179 244.143 329.099 246.928 326.529 C 250.667 323.257 254.95 320.669 259.584 318.882 C 264.025 317.115 268.787 316.295 273.563 316.475 C 273.813 316.475 273.933 316.781 273.933 317.401 L 273.933 317.808 C 273.635 321.846 272.943 325.847 271.869 329.751 C 271.052 333.374 270.045 336.953 268.851 340.471 C 268.48 341.489 267.971 342.008 267.351 342.008 C 266.942 341.977 266.584 341.72 266.425 341.341 C 266.145 340.782 265.984 340.17 265.953 339.545 C 265.747 333.624 264.163 327.832 261.324 322.631 C 259.515 323.266 257.827 324.205 256.334 325.409 C 254.533 326.87 253.03 328.664 251.909 330.695 C 250.364 333.541 249.241 336.598 248.576 339.767 C 247.854 343.083 247.491 346.465 247.493 349.858 C 247.478 350.646 247.509 351.435 247.586 352.219 L 248.15 351.812 C 250.457 350.37 253.008 349.363 255.677 348.84 C 258.522 348.226 261.423 347.916 264.333 347.914 C 266.433 347.879 268.531 348.069 270.591 348.479 C 272.322 348.858 273.183 349.312 273.183 349.858 C 273.183 354.098 271.144 358.338 267.064 362.578 C 266.184 363.504 265.527 364.013 265.092 364.013 C 264.475 364.013 264.068 363.226 263.87 361.653 C 263.309 356.715 260.296 354.246 254.834 354.246 C 252.437 354.265 250.056 354.646 247.771 355.376 C 248.509 361.937 250.189 368.357 252.761 374.437 L 255.769 380.39 C 258.528 385.327 260.287 389.358 261.046 392.481 C 262.273 391.645 263.378 390.645 264.333 389.509 C 266.092 387.324 267.256 384.216 267.823 380.187 C 267.896 379.504 267.927 378.817 267.916 378.131 C 267.916 374.854 266.99 373.04 265.185 372.697 C 264.62 372.558 264.916 372.03 266.11 371.105 C 266.916 370.428 267.784 369.83 268.702 369.318 C 269.017 369.176 269.693 368.815 270.73 368.235 C 271.674 367.699 272.666 367.253 273.692 366.902 C 274.473 366.61 275.314 366.524 276.136 366.652 C 278.414 367.17 279.55 369.105 279.543 372.456 Z M 479.205 196.14 L 448.812 196.14 C 448.251 196.219 447.684 196.252 447.118 196.242 C 446.644 196.253 446.17 196.219 445.701 196.14 C 444.637 196.066 444.1 193.131 444.1 187.317 C 444.1 185.614 444.192 182.087 444.387 176.764 C 445.072 153.045 445.418 138.758 445.424 133.9 C 445.483 130.889 445.34 127.876 444.998 124.883 C 444.661 122.918 443.871 121.058 442.693 119.449 C 442.313 118.838 442.896 117.977 444.433 116.885 C 446.187 115.679 448.084 114.696 450.08 113.959 C 451.811 113.196 453.69 112.828 455.579 112.885 C 456.709 112.96 457.273 115.996 457.273 122.014 C 457.273 123.791 457.218 126.05 457.088 128.781 L 456.996 132.262 C 456.935 137.816 456.857 144.961 456.764 153.693 C 456.672 162.426 456.623 169.123 456.616 173.783 C 456.616 177.55 456.709 180.754 456.903 183.42 C 457.033 185.744 457.411 188.047 458.033 190.289 L 469.225 190.289 C 471.966 184.94 473.544 179.072 473.854 173.07 C 473.974 171.431 474.446 170.607 475.261 170.607 C 476.076 170.607 476.483 171.153 476.863 172.246 C 478.064 175.845 479.069 179.508 479.872 183.216 C 481.193 188.771 481.853 192.804 481.853 195.316 C 481.834 195.862 480.964 196.14 479.205 196.14 Z M 56.208 296.826 C 53.453 297.47 50.633 297.803 47.802 297.817 L 46.182 297.705 C 44.948 297.643 44.33 294.678 44.33 288.809 C 44.33 285.911 44.432 283.254 44.617 280.94 L 44.71 278.162 C 44.71 276.86 44.837 271.238 45.089 261.295 C 45.534 248.871 45.756 240.07 45.756 234.892 C 45.82 231.849 45.677 228.806 45.33 225.782 C 44.991 223.8 44.196 221.924 43.006 220.302 C 42.627 219.682 43.21 218.821 44.765 217.71 C 46.533 216.493 48.445 215.504 50.459 214.766 C 52.206 213.989 54.103 213.616 56.013 213.673 C 57.156 213.747 57.726 216.923 57.726 223.2 C 57.726 224.995 57.661 227.202 57.532 229.819 L 57.439 233.346 C 57.309 237.968 57.198 244.212 57.106 252.074 C 57.013 259.937 56.973 266.859 56.985 272.839 C 56.985 278.498 57.146 283.088 57.467 286.605 C 57.788 290.123 58.547 292.815 59.744 294.678 C 60.29 295.437 59.096 296.15 56.217 296.798 L 56.208 296.826 Z M 177.264 273.632 C 177.257 274.604 177.164 275.573 176.986 276.529 C 175.907 281.702 172.879 285.877 167.904 289.055 C 162.647 292.358 156.932 294.872 150.944 296.517 L 150.278 296.721 C 149.519 296.924 149.037 296.924 148.852 296.721 C 148.777 296.645 148.672 296.608 148.565 296.619 C 144.167 294.165 140.396 290.728 137.548 286.574 C 136.551 285.159 135.664 283.671 134.891 282.121 C 134.293 280.932 133.977 279.62 133.966 278.288 C 133.975 277.429 134.171 276.583 134.54 275.807 C 134.983 274.921 135.615 274.144 136.391 273.53 C 137.285 272.886 138.258 272.363 139.289 271.975 L 143.14 270.836 C 145.519 270.151 146.51 270.179 146.13 270.938 C 145.804 271.615 145.642 272.361 145.658 273.113 C 145.679 274.236 145.921 275.344 146.371 276.372 C 146.811 277.44 147.318 278.479 147.889 279.483 C 148.426 280.408 148.815 281.084 148.982 281.501 C 149.942 283.207 151.142 284.766 152.546 286.13 C 154.032 287.621 155.639 288.987 157.351 290.212 C 159.679 289.228 161.674 287.595 163.1 285.509 C 164.618 283.529 165.465 281.116 165.516 278.622 C 165.515 277.921 165.421 277.224 165.238 276.548 C 164.859 274.947 164.299 273.395 163.572 271.919 C 162.828 270.488 161.894 269.164 160.794 267.985 C 159.406 266.404 156.681 263.714 152.62 259.912 C 152.812 260.048 151.546 258.872 148.824 256.385 C 145.476 253.254 142.421 249.823 139.696 246.136 C 137.56 243.174 136.428 239.605 136.465 235.953 C 136.457 234.087 136.77 232.232 137.391 230.472 C 138.227 227.824 139.677 225.409 141.622 223.427 C 143.606 221.361 145.899 219.615 148.417 218.252 C 151.506 216.535 154.813 215.246 158.249 214.42 C 161.953 213.557 165.721 213.003 169.515 212.762 C 169.84 212.673 170.188 212.753 170.441 212.975 L 170.441 213.485 C 170.441 215.954 169.778 219.993 168.451 225.603 C 167.124 231.213 166.108 234.974 165.405 236.888 C 165.253 237.315 165.01 237.704 164.692 238.027 C 164.488 238.265 164.199 238.414 163.887 238.443 C 163.47 238.419 163.094 238.186 162.887 237.823 C 162.557 237.261 162.378 236.623 162.368 235.972 C 162.166 229.964 160.582 224.086 157.739 218.789 C 156.79 218.949 155.858 219.21 154.962 219.567 C 154.099 219.872 153.307 220.348 152.629 220.965 L 151.435 221.974 C 150.829 222.753 150.29 223.584 149.824 224.455 C 148.766 226.581 148.182 228.913 148.111 231.287 C 148.138 233.338 148.625 235.356 149.537 237.194 C 150.918 240.146 152.745 242.868 154.953 245.266 C 157.169 247.685 160.082 250.515 163.692 253.756 C 167.303 256.996 169.932 259.514 171.58 261.31 C 175.375 265.457 177.27 269.565 177.264 273.632 Z M 380.971 377.011 C 380.96 377.983 380.864 378.953 380.684 379.909 C 379.598 385.081 376.57 389.256 371.602 392.434 C 366.343 395.722 360.629 398.218 354.642 399.84 L 353.975 400.053 C 353.216 400.257 352.744 400.257 352.549 400.053 C 352.475 399.976 352.371 399.935 352.262 399.942 C 347.862 397.496 344.091 394.061 341.246 389.907 C 340.243 388.494 339.352 387.006 338.58 385.454 C 337.987 384.262 337.671 382.952 337.654 381.621 C 337.663 380.762 337.859 379.916 338.228 379.14 C 338.667 378.251 339.299 377.473 340.079 376.863 C 340.973 376.218 341.947 375.695 342.977 375.307 C 343.171 375.243 344.449 374.854 346.828 374.169 C 349.207 373.484 350.198 373.511 349.818 374.271 C 349.491 374.948 349.33 375.694 349.346 376.446 C 349.367 377.569 349.609 378.676 350.059 379.705 C 350.499 380.773 351.006 381.812 351.577 382.815 C 352.114 383.741 352.503 384.417 352.67 384.834 C 353.631 386.539 354.831 388.098 356.234 389.463 C 357.718 390.959 359.325 392.329 361.039 393.554 C 363.367 392.567 365.362 390.931 366.788 388.842 C 368.3 386.869 369.143 384.467 369.195 381.982 C 369.191 381.281 369.095 380.584 368.908 379.909 C 368.529 378.308 367.971 376.754 367.241 375.28 C 366.501 373.847 365.567 372.523 364.464 371.345 C 363.075 369.753 360.344 367.068 356.29 363.263 C 356.484 363.402 355.216 362.236 352.494 359.745 C 349.148 356.612 346.093 353.182 343.366 349.497 C 341.234 346.533 340.102 342.965 340.135 339.314 C 340.127 337.444 340.439 335.586 341.061 333.824 C 341.897 331.178 343.346 328.766 345.291 326.788 C 347.275 324.722 349.568 322.976 352.087 321.613 C 355.171 319.905 358.477 318.631 361.909 317.826 C 365.612 316.959 369.381 316.405 373.176 316.169 C 373.5 316.08 373.846 316.156 374.101 316.373 L 374.101 316.901 C 374.101 319.37 373.438 323.409 372.111 329.019 C 370.784 334.629 369.769 338.391 369.065 340.304 C 368.913 340.731 368.67 341.12 368.352 341.443 C 368.149 341.68 367.859 341.826 367.547 341.85 C 367.129 341.83 366.752 341.596 366.547 341.23 C 366.222 340.666 366.043 340.029 366.029 339.378 C 365.827 333.371 364.243 327.491 361.4 322.196 C 360.451 322.357 359.52 322.615 358.622 322.964 C 357.748 323.254 356.938 323.71 356.234 324.307 L 355.095 325.344 C 354.492 326.129 353.953 326.961 353.484 327.834 C 352.431 329.962 351.847 332.293 351.772 334.666 C 351.798 336.714 352.286 338.729 353.197 340.563 C 354.577 343.52 356.403 346.246 358.613 348.645 C 360.835 351.059 363.751 353.888 367.362 357.135 C 371.065 360.44 373.657 362.967 375.249 364.689 C 379.058 368.83 380.965 372.938 380.971 377.011 Z M 267.101 214.391 L 279.284 214.391 L 279.284 296.914 L 267.101 296.914 L 267.101 241.979 L 244.216 241.979 L 244.216 296.914 L 232.042 296.914 L 232.042 214.391 L 244.216 214.391 L 244.216 238.202 L 267.101 238.202 L 267.101 214.391 Z" style=""/>
</svg>