<?xml version="1.0" encoding="utf-8"?>
<svg version="1.1" id="Слой_1" x="0px" y="0px" viewBox="0 0 512 512" style="enable-background:new 0 0 512 512;" xmlns="http://www.w3.org/2000/svg">
  <path d="M 33.006 90.779 L 33.006 79.556 L 21.783 79.556 L 21.783 68.334 L 10.561 68.334 L 10.561 34.666 L 21.783 34.666 L 21.783 23.444 L 33.006 23.444 L 33.006 12.222 L 77.896 12.222 L 77.896 23.444 L 89.118 23.444 L 89.118 34.666 L 66.673 34.666 L 66.673 23.444 L 44.228 23.444 L 44.228 34.666 L 33.006 34.666 L 33.006 68.334 L 44.228 68.334 L 44.228 79.556 L 66.673 79.556 L 66.673 68.334 L 89.118 68.334 L 89.118 79.556 L 77.896 79.556 L 77.896 90.779 L 33.006 90.779 Z M 115.584 90.691 L 115.584 34.579 L 126.807 34.579 L 126.807 23.356 L 138.029 23.356 L 138.029 12.134 L 171.696 12.134 L 171.696 23.356 L 182.919 23.356 L 182.919 34.579 L 194.141 34.579 L 194.141 90.691 L 171.696 90.691 L 171.696 68.246 L 138.029 68.246 L 138.029 90.691 L 115.584 90.691 Z M 138.029 57.024 L 171.696 57.024 L 171.696 34.579 L 160.474 34.579 L 160.474 23.356 L 149.252 23.356 L 149.252 34.579 L 138.029 34.579 L 138.029 57.024 Z M 217.021 91.376 L 217.021 12.819 L 239.466 12.819 L 239.466 24.041 L 250.689 24.041 L 250.689 35.263 L 261.911 35.263 L 261.911 46.486 L 273.134 46.486 L 273.134 12.819 L 295.578 12.819 L 295.578 91.376 L 273.134 91.376 L 273.134 68.931 L 261.911 68.931 L 261.911 57.708 L 250.689 57.708 L 250.689 46.486 L 239.466 46.486 L 239.466 91.376 L 217.021 91.376 Z M 346.311 92.483 L 346.311 25.148 L 323.866 25.148 L 323.866 13.926 L 391.201 13.926 L 391.201 25.148 L 368.756 25.148 L 368.756 92.483 L 346.311 92.483 Z M 141.693 397.969 L 141.693 330.634 L 119.248 330.634 L 119.248 319.412 L 186.583 319.412 L 186.583 330.634 L 164.138 330.634 L 164.138 397.969 L 141.693 397.969 Z M 217.493 397.881 L 217.493 319.324 L 296.05 319.324 L 296.05 330.547 L 239.937 330.547 L 239.937 352.992 L 284.827 352.992 L 284.827 364.214 L 239.937 364.214 L 239.937 386.659 L 296.05 386.659 L 296.05 397.881 L 217.493 397.881 Z M 432.396 91.612 L 432.396 80.389 L 421.173 80.389 L 421.173 24.277 L 432.396 24.277 L 432.396 13.055 L 488.508 13.055 L 488.508 24.277 L 499.73 24.277 L 499.73 80.389 L 488.508 80.389 L 488.508 91.612 L 432.396 91.612 Z M 443.618 80.389 L 477.285 80.389 L 477.285 24.277 L 443.618 24.277 L 443.618 80.389 Z M 114.544 193.175 L 114.544 114.618 L 181.878 114.618 L 181.878 125.84 L 193.101 125.84 L 193.101 148.285 L 181.878 148.285 L 181.878 159.507 L 193.101 159.507 L 193.101 181.952 L 181.878 181.952 L 181.878 193.175 L 114.544 193.175 Z M 136.989 148.285 L 170.656 148.285 L 170.656 125.84 L 136.989 125.84 L 136.989 148.285 Z M 136.989 181.952 L 170.656 181.952 L 170.656 159.507 L 136.989 159.507 L 136.989 181.952 Z M 421.595 295.122 L 421.595 216.565 L 488.93 216.565 L 488.93 227.788 L 500.152 227.788 L 500.152 250.233 L 488.93 250.233 L 488.93 261.455 L 500.152 261.455 L 500.152 283.9 L 488.93 283.9 L 488.93 295.122 L 421.595 295.122 Z M 444.04 250.233 L 477.707 250.233 L 477.707 227.788 L 444.04 227.788 L 444.04 250.233 Z M 444.04 283.9 L 477.707 283.9 L 477.707 261.455 L 444.04 261.455 L 444.04 283.9 Z M 40.764 397.969 L 40.764 364.302 L 29.542 364.302 L 29.542 353.079 L 18.319 353.079 L 18.319 319.412 L 40.764 319.412 L 40.764 353.079 L 63.209 353.079 L 63.209 319.412 L 85.654 319.412 L 85.654 353.079 L 74.432 353.079 L 74.432 364.302 L 63.209 364.302 L 63.209 397.969 L 40.764 397.969 Z M 227.714 193.772 L 227.714 182.549 L 216.491 182.549 L 216.491 115.215 L 238.936 115.215 L 238.936 182.549 L 272.604 182.549 L 272.604 115.215 L 295.048 115.215 L 295.048 182.549 L 283.826 182.549 L 283.826 193.772 L 227.714 193.772 Z M 324.531 193.087 L 324.531 114.53 L 346.976 114.53 L 346.976 181.865 L 391.866 181.865 L 391.866 193.087 L 324.531 193.087 Z M 16.615 294.886 L 16.615 283.664 L 39.06 283.664 L 39.06 227.552 L 16.615 227.552 L 16.615 216.329 L 83.95 216.329 L 83.95 227.552 L 61.505 227.552 L 61.505 283.664 L 83.95 283.664 L 83.95 294.886 L 16.615 294.886 Z M 126.082 295.484 L 126.082 284.262 L 114.859 284.262 L 114.859 273.039 L 137.304 273.039 L 137.304 284.262 L 170.972 284.262 L 170.972 261.817 L 126.082 261.817 L 126.082 250.595 L 114.859 250.595 L 114.859 228.15 L 126.082 228.15 L 126.082 216.927 L 182.194 216.927 L 182.194 228.15 L 193.416 228.15 L 193.416 239.372 L 170.972 239.372 L 170.972 228.15 L 137.304 228.15 L 137.304 250.595 L 182.194 250.595 L 182.194 261.817 L 193.416 261.817 L 193.416 284.262 L 182.194 284.262 L 182.194 295.484 L 126.082 295.484 Z M 330.147 397.607 L 330.147 386.385 L 318.925 386.385 L 318.925 375.162 L 341.369 375.162 L 341.369 386.385 L 375.037 386.385 L 375.037 363.94 L 330.147 363.94 L 330.147 352.717 L 318.925 352.717 L 318.925 330.272 L 330.147 330.272 L 330.147 319.05 L 386.259 319.05 L 386.259 330.272 L 397.482 330.272 L 397.482 341.495 L 375.037 341.495 L 375.037 330.272 L 341.369 330.272 L 341.369 352.717 L 386.259 352.717 L 386.259 363.94 L 397.482 363.94 L 397.482 386.385 L 386.259 386.385 L 386.259 397.607 L 330.147 397.607 Z M 216.895 295.484 L 216.895 216.927 L 239.339 216.927 L 239.339 250.595 L 273.007 250.595 L 273.007 216.927 L 295.452 216.927 L 295.452 295.484 L 273.007 295.484 L 273.007 261.817 L 239.339 261.817 L 239.339 295.484 L 216.895 295.484 Z M 426.914 192.725 L 426.914 114.168 L 449.359 114.168 L 449.359 181.503 L 494.249 181.503 L 494.249 192.725 L 426.914 192.725 Z" style=""/>
</svg>