<?xml version="1.0" encoding="utf-8"?>
<svg viewBox="0 0 512 512" xmlns="http://www.w3.org/2000/svg">
  <title>cbSpace</title>
  <path d="M 37.449 32.942 C 37.464 38.534 38.604 44.066 40.801 49.208 C 43.081 54.631 45.94 59.794 49.327 64.604 C 52.795 69.546 56.645 74.208 60.844 78.546 C 65.072 82.916 69.176 86.844 73.156 90.331 L 55.567 90.331 C 51.428 86.699 47.591 82.736 44.096 78.481 C 40.298 73.915 36.86 69.062 33.811 63.965 C 30.821 58.992 28.322 53.74 26.349 48.282 C 24.493 43.298 23.518 38.03 23.47 32.711 C 23.46 29.694 23.836 26.689 24.591 23.768 C 25.283 21.004 26.573 18.425 28.368 16.214 C 30.304 13.933 32.753 12.143 35.515 10.992 C 39.042 9.572 42.824 8.897 46.624 9.011 L 70.833 9.011 L 70.833 36.081 L 58.455 36.081 L 58.455 12.733 L 55.891 12.733 C 52.534 12.607 49.185 13.138 46.031 14.297 C 43.81 15.168 41.872 16.635 40.43 18.538 C 39.105 20.438 38.263 22.634 37.977 24.935 C 37.614 27.588 37.437 30.264 37.449 32.942 Z M 187.934 81.225 C 188.654 80.791 189.422 80.44 190.22 80.179 L 190.378 80.179 C 190.693 80.179 190.85 80.355 190.85 80.698 C 190.85 80.892 190.406 81.457 189.498 82.383 C 188.591 83.308 187.508 84.345 186.24 85.502 C 184.971 86.66 183.731 87.734 182.537 88.733 C 181.654 89.501 180.727 90.215 179.759 90.872 C 177.255 92.37 176.302 90.547 171.594 90.992 C 169.37 91.202 167.83 87.419 166.039 83.734 C 164.06 79.603 162.575 75.252 161.614 70.774 L 160.688 66.663 L 157.402 69.903 C 156.415 70.866 155.078 72.178 153.393 73.838 C 151.718 75.495 150.079 77.124 148.487 78.744 C 146.894 80.364 145.098 82.096 143.182 83.947 C 141.266 85.799 139.664 87.317 138.359 88.511 C 137.142 89.714 135.83 90.816 134.434 91.807 C 133.719 92.364 132.85 92.687 131.943 92.733 L 131.193 92.733 C 130.326 92.599 129.485 92.327 128.703 91.927 C 126.286 90.947 124.31 89.116 123.148 86.78 C 121.867 84.276 120.998 81.581 120.575 78.8 C 120.203 76.314 120.007 73.805 119.992 71.292 L 119.992 70.709 C 120.096 58.763 123.061 47.018 128.638 36.455 C 131.317 31.548 134.597 26.995 138.405 22.902 C 142.145 18.87 146.095 15.038 150.236 11.422 C 150.502 11.214 150.749 10.985 150.977 10.737 C 151.604 10.087 152.295 9.504 153.042 8.997 C 153.556 8.591 154.192 8.37 154.847 8.367 C 155.025 8.367 155.201 8.386 155.374 8.423 C 158.998 9.159 162.108 11.465 163.864 14.718 C 165.752 18.206 167.007 22.002 167.567 25.929 C 168.184 29.718 168.601 33.538 168.817 37.372 C 169.205 42.377 169.542 46.481 169.826 49.684 C 169.894 51.415 170.108 53.137 170.465 54.832 C 170.923 54.671 171.35 54.436 171.733 54.137 C 172.436 53.675 173.344 53.054 174.436 52.286 C 175.528 51.518 176.473 50.897 177.213 50.434 C 177.616 50.15 178.063 49.937 178.537 49.805 L 178.593 49.805 C 178.76 49.899 178.863 50.076 178.861 50.268 C 178.771 50.694 178.569 51.09 178.278 51.416 C 177.251 52.599 176.134 53.701 174.936 54.711 C 174.669 54.924 174.419 55.156 174.186 55.406 C 173.277 56.109 172.459 56.924 171.751 57.831 C 171.359 58.346 171.152 58.979 171.168 59.627 C 171.168 59.785 171.168 60.136 171.27 60.692 C 171.507 61.916 171.816 63.124 172.196 64.312 C 172.298 64.691 172.409 65.099 172.51 65.524 C 173.465 69.126 174.809 72.611 176.519 75.921 C 178.093 78.895 179.62 80.802 181.102 81.642 C 182.026 82.098 183.043 82.335 184.073 82.336 C 185.433 82.293 186.76 81.911 187.934 81.225 Z M 156.532 67.413 L 160.142 63.997 L 159.818 61.284 C 159.714 60.433 159.547 58.699 159.318 56.082 C 159.091 53.464 158.868 50.555 158.652 47.352 C 158.615 47.2 158.596 47.044 158.596 46.889 C 158.531 46.009 158.457 45.083 158.383 44.111 C 158.242 40.86 157.932 37.619 157.457 34.4 C 157.017 31.257 156.08 28.204 154.68 25.355 C 153.281 22.56 151.072 20.253 148.339 18.736 C 148.036 18.523 147.697 18.367 147.339 18.273 C 147.273 18.239 147.201 18.219 147.126 18.218 C 146.892 18.236 146.669 18.327 146.487 18.477 C 146.057 18.806 145.648 19.166 145.265 19.551 C 141.766 22.784 138.646 27.802 135.906 34.604 C 133.094 41.699 131.217 49.131 130.323 56.711 C 130.082 58.763 129.957 60.828 129.953 62.895 C 129.818 67.913 130.834 72.894 132.925 77.458 C 134.227 80.383 136.696 82.309 140.331 83.234 C 141.018 82.661 141.664 82.043 142.266 81.383 C 143.451 80.207 144.932 78.744 146.7 77.013 C 148.468 75.282 150.283 73.449 152.134 71.644 L 156.532 67.413 Z M 275.484 91.958 C 272.697 92.603 269.847 92.932 266.985 92.939 L 265.365 92.837 C 264.736 92.763 264.291 91.911 264.032 90.356 C 263.743 88.159 263.617 85.943 263.653 83.728 L 263.754 78.756 C 263.81 77.83 263.847 76.377 263.847 74.516 C 263.847 71.14 262.184 66.533 258.857 60.694 C 255.504 54.823 251.538 49.325 247.026 44.29 C 246.958 50.227 246.928 58.127 246.933 67.989 L 246.933 72.544 C 246.901 76.091 247.074 79.637 247.452 83.163 C 247.638 85.524 248.37 87.808 249.59 89.838 C 250.103 90.597 248.9 91.303 245.98 91.958 C 243.208 92.597 240.373 92.927 237.527 92.939 L 235.907 92.837 C 234.769 92.763 234.204 89.838 234.204 84.042 C 234.204 82.524 234.259 80.45 234.389 77.83 L 234.482 73.276 L 234.676 68.508 C 234.738 65.965 234.911 60.102 235.195 50.918 C 235.479 41.735 235.624 35.282 235.63 31.56 C 235.7 28.12 235.555 24.678 235.195 21.257 C 234.863 19.158 234.07 17.16 232.871 15.406 C 232.491 14.786 233.074 13.925 234.63 12.823 C 236.4 11.603 238.315 10.61 240.333 9.87 C 242.08 9.099 243.978 8.728 245.887 8.787 C 247.03 8.849 247.6 12.02 247.6 18.303 C 247.6 20.099 247.535 22.309 247.405 24.932 L 247.313 28.45 L 247.118 37.976 C 253.735 42.445 259.605 47.927 264.514 54.223 C 264.828 44.429 264.986 36.874 264.986 31.56 C 264.986 27.765 264.955 25.124 264.893 23.636 C 264.838 22.205 264.63 20.783 264.273 19.396 C 263.879 17.956 263.219 16.604 262.329 15.406 C 261.949 14.786 262.532 13.925 264.088 12.823 C 265.854 11.603 267.767 10.61 269.781 9.87 C 271.53 9.099 273.427 8.73 275.336 8.787 C 276.472 8.849 277.043 12.02 277.049 18.303 C 277.049 20.099 276.984 22.309 276.854 24.932 L 276.762 28.45 C 276.694 30.665 276.599 36.72 276.475 46.613 C 276.351 56.507 276.287 64.15 276.28 69.545 C 276.28 74.723 276.441 78.966 276.762 82.274 C 277.083 85.582 277.842 88.104 279.039 89.838 C 279.552 90.597 278.367 91.303 275.484 91.958 Z M 358.003 92.21 C 351.721 88.507 347.042 81.274 343.968 70.51 C 343.542 69.068 343.232 67.595 343.042 66.103 C 342.832 64.049 342.73 61.984 342.737 59.919 C 342.737 58.993 342.681 58.067 342.681 57.234 C 342.622 51.761 343.54 46.321 345.394 41.172 C 346.658 37.572 348.317 34.122 350.337 30.887 C 352.406 27.554 354.276 25.332 355.948 24.221 C 356.355 23.99 356.559 23.805 356.559 23.657 C 356.559 23.286 355.531 23.009 353.485 22.823 C 352.559 22.749 351.226 22.555 349.467 22.24 C 347.708 21.925 345.959 21.574 344.218 21.203 C 341.652 20.571 339.028 20.199 336.386 20.092 L 335.877 20.092 C 334.007 20.201 332.193 20.773 330.6 21.759 C 329.809 22.293 328.923 22.672 327.989 22.879 C 327.851 22.879 327.786 22.805 327.786 22.657 C 327.786 22.249 328.637 21.188 330.341 19.472 C 334.71 15.01 337.877 12.455 339.839 11.807 C 341.527 11.205 343.299 10.874 345.088 10.825 C 347.701 10.888 350.297 11.264 352.819 11.946 C 356.862 12.855 360.96 13.507 365.085 13.899 C 368.381 14.158 370.806 14.288 372.38 14.288 C 374.163 14.314 375.944 14.183 377.703 13.899 C 378.471 13.704 379.225 13.463 379.962 13.177 C 380.782 12.877 381.586 12.534 382.369 12.149 C 382.944 11.858 383.535 11.598 384.137 11.372 C 384.434 11.253 384.746 11.178 385.063 11.149 C 385.136 11.14 385.209 11.161 385.267 11.205 C 385.382 11.278 385.458 11.401 385.47 11.538 C 385.488 11.592 385.488 11.65 385.47 11.705 C 385.28 12.099 385.019 12.457 384.702 12.76 C 384.258 13.251 383.536 13.936 382.554 14.825 C 382.11 15.241 381.628 15.667 381.221 16.112 C 379.28 18.164 377.053 19.929 374.611 21.351 C 372.725 22.267 370.702 22.871 368.621 23.138 C 366.549 23.399 364.463 23.547 362.372 23.583 L 360.021 23.694 L 358.336 26.934 C 354.494 34.218 352.522 42.342 352.596 50.578 L 352.596 51.032 C 352.52 56.95 353.617 62.825 355.827 68.316 C 357.263 72.135 359.339 75.682 361.965 78.805 C 364.478 81.681 366.996 83.418 369.519 84.017 C 369.67 84.059 369.827 84.078 369.982 84.072 C 370.357 84.065 370.725 83.97 371.056 83.795 C 371.97 83.224 372.829 82.571 373.621 81.841 C 374.608 81.027 375.358 80.434 375.87 80.064 C 376.177 79.79 376.545 79.595 376.944 79.499 C 377.184 79.503 377.392 79.666 377.453 79.897 L 377.453 80.008 C 377.453 80.675 374.759 83.424 369.371 88.257 C 366.437 90.979 364.474 92.497 363.502 92.83 C 362.793 93.114 362.043 93.286 361.28 93.339 C 360.109 93.281 358.979 92.889 358.021 92.21 L 358.003 92.21 Z M 461.356 296.832 C 455.079 293.129 450.404 285.899 447.331 275.141 C 446.907 273.699 446.597 272.225 446.405 270.734 C 446.238 269.321 446.136 267.256 446.099 264.541 C 446.099 263.615 446.044 262.69 446.044 261.866 C 446.029 259.515 446.184 257.166 446.507 254.839 C 446.966 251.758 447.722 248.729 448.766 245.794 C 450.024 242.193 451.679 238.744 453.7 235.509 C 455.768 232.176 457.638 229.954 459.31 228.843 C 459.717 228.621 459.921 228.436 459.921 228.288 C 459.921 227.908 458.903 227.631 456.848 227.445 C 455.922 227.371 454.589 227.177 452.83 226.862 C 451.071 226.547 449.321 226.205 447.581 225.825 C 445.014 225.193 442.391 224.821 439.749 224.714 L 439.239 224.714 C 437.368 224.821 435.554 225.398 433.963 226.39 C 433.169 226.919 432.284 227.295 431.352 227.501 C 431.213 227.501 431.148 227.427 431.148 227.279 C 431.148 226.871 432 225.807 433.703 224.103 C 438.073 219.641 441.239 217.083 443.202 216.429 C 444.889 215.83 446.661 215.502 448.451 215.457 C 451.063 215.515 453.658 215.888 456.181 216.568 C 460.224 217.48 464.321 218.133 468.447 218.521 C 471.743 218.78 474.175 218.91 475.743 218.91 C 477.526 218.936 479.307 218.805 481.066 218.521 C 481.833 218.326 482.588 218.085 483.325 217.799 C 484.148 217.494 484.953 217.139 485.732 216.734 C 486.303 216.442 486.891 216.182 487.491 215.957 C 487.788 215.838 488.099 215.763 488.416 215.734 C 488.489 215.724 488.563 215.745 488.62 215.79 C 488.736 215.863 488.812 215.986 488.824 216.123 C 488.846 216.177 488.846 216.236 488.824 216.29 C 488.636 216.689 488.375 217.05 488.055 217.355 C 487.611 217.836 486.898 218.521 485.907 219.419 C 485.463 219.826 485.019 220.252 484.574 220.697 C 482.631 222.75 480.406 224.517 477.964 225.946 C 476.077 226.856 474.054 227.456 471.975 227.723 C 469.905 227.987 467.822 228.139 465.735 228.177 L 463.374 228.288 L 461.606 231.519 C 457.763 238.806 455.791 246.934 455.866 255.172 L 455.866 255.617 C 455.789 261.538 456.887 267.416 459.097 272.91 C 460.557 276.74 462.658 280.293 465.309 283.417 C 467.822 286.306 470.336 288.046 472.854 288.639 C 473.006 288.677 473.161 288.695 473.317 288.694 C 473.692 288.687 474.059 288.592 474.391 288.417 C 475.305 287.845 476.163 287.192 476.955 286.463 C 477.946 285.639 478.696 285.047 479.205 284.677 C 479.512 284.405 479.881 284.215 480.279 284.121 C 480.519 284.12 480.731 284.278 480.797 284.51 L 480.797 284.621 C 480.797 285.288 478.1 288.04 472.706 292.879 C 469.775 295.589 467.822 297.112 466.846 297.452 C 466.132 297.73 465.379 297.899 464.615 297.952 C 463.444 297.9 462.312 297.511 461.356 296.832 Z M 460.92 92.895 C 457.241 92.907 453.63 91.911 450.477 90.015 C 447.042 87.924 444.132 85.075 441.969 81.684 C 439.355 77.568 437.44 73.047 436.303 68.306 C 434.876 62.481 434.188 56.5 434.257 50.504 C 434.186 44.525 434.873 38.562 436.303 32.757 C 437.448 28.035 439.363 23.534 441.969 19.435 C 444.136 16.023 447.044 13.143 450.477 11.01 C 456.882 7.073 464.958 7.073 471.362 11.01 C 474.796 13.143 477.704 16.023 479.87 19.435 C 482.477 23.534 484.391 28.035 485.536 32.757 C 486.971 38.545 487.661 44.494 487.591 50.457 C 487.666 56.454 486.978 62.436 485.545 68.26 C 484.411 73.017 482.493 77.555 479.87 81.684 C 477.708 85.075 474.798 87.924 471.362 90.015 C 468.21 91.911 464.599 92.907 460.92 92.895 Z M 460.92 88.886 C 462.999 88.797 464.936 87.807 466.224 86.174 C 468.133 83.894 469.594 81.274 470.529 78.453 C 471.886 74.55 472.835 70.516 473.362 66.418 C 474.696 55.85 474.696 45.157 473.362 34.59 C 472.843 30.451 471.895 26.376 470.529 22.434 C 469.594 19.613 468.133 16.993 466.224 14.713 C 463.612 11.098 458.228 11.098 455.615 14.713 C 453.707 16.991 452.249 19.612 451.319 22.434 C 449.951 26.354 448.998 30.406 448.477 34.525 C 447.778 39.8 447.447 45.117 447.487 50.439 C 447.448 55.76 447.778 61.078 448.477 66.353 C 449.003 70.452 449.956 74.486 451.319 78.388 C 452.249 81.21 453.707 83.831 455.615 86.109 C 456.892 87.766 458.83 88.781 460.92 88.886 Z M 55.813 144.74 C 58.165 147.999 60.529 151.156 62.905 154.211 C 65.281 157.266 67.441 160.305 69.385 163.33 C 71.212 166.166 72.782 169.158 74.079 172.273 C 75.273 175.066 75.903 178.067 75.93 181.104 C 75.93 185.06 75.094 188.06 73.422 190.103 C 71.755 192.158 69.135 193.186 65.59 193.186 L 28.346 193.186 L 28.346 111.866 L 63.423 111.866 C 65.989 111.76 68.518 112.495 70.626 113.958 C 72.481 115.297 73.541 117.477 73.449 119.763 C 73.389 122.09 72.807 124.374 71.746 126.447 C 70.529 128.932 69.062 131.286 67.367 133.474 C 65.62 135.781 63.695 137.947 61.609 139.954 C 59.807 141.701 57.87 143.301 55.813 144.74 Z M 54.267 189.464 C 59.526 189.464 62.155 186.523 62.155 180.642 C 62.164 177.368 61.75 174.107 60.924 170.939 C 60.111 167.807 59.062 164.74 57.785 161.765 C 56.462 158.738 54.979 155.784 53.342 152.915 C 51.712 150.008 50.096 147.064 48.491 144.083 C 46.898 141.102 45.38 138.065 43.964 134.964 C 42.518 131.816 41.341 128.552 40.446 125.206 L 40.659 189.446 L 54.267 189.464 Z M 42.001 115.588 C 42.573 120.258 43.945 124.796 46.056 129.002 C 48.233 133.378 50.727 137.589 53.518 141.602 C 55.341 139.152 56.879 136.504 58.1 133.705 C 59.43 130.763 60.328 127.645 60.766 124.447 C 61.192 121.429 60.696 119.205 59.276 117.773 C 57.628 116.255 55.43 115.478 53.194 115.625 L 42.001 115.588 Z M 262.585 249.414 C 264.924 252.661 267.288 255.818 269.676 258.885 C 272.065 261.952 274.226 264.992 276.157 268.004 C 277.98 270.842 279.55 273.834 280.85 276.947 C 282.025 279.743 282.639 282.745 282.656 285.778 C 282.656 289.722 281.822 292.731 280.156 294.777 C 278.49 296.823 275.87 297.86 272.315 297.86 L 235.099 297.86 L 235.099 216.54 L 270.185 216.54 C 272.748 216.434 275.274 217.169 277.379 218.632 C 279.238 219.968 280.3 222.15 280.202 224.437 C 280.129 226.769 279.528 229.055 278.443 231.121 C 277.23 233.606 275.765 235.96 274.074 238.148 C 272.327 240.455 270.401 242.621 268.315 244.628 C 266.531 246.367 264.615 247.967 262.585 249.414 Z M 260.983 294.138 C 266.242 294.138 268.871 291.197 268.871 285.316 C 268.878 282.043 268.468 278.782 267.649 275.613 C 266.831 272.478 265.779 269.408 264.501 266.43 C 263.208 263.411 261.749 260.466 260.132 257.607 C 258.49 254.7 256.873 251.756 255.281 248.775 C 253.688 245.794 252.176 242.755 250.744 239.657 C 249.307 236.506 248.13 233.242 247.226 229.899 L 247.439 294.138 L 260.983 294.138 Z M 248.717 220.252 C 249.299 224.924 250.67 229.463 252.772 233.676 C 254.953 238.05 257.447 242.261 260.233 246.276 C 262.077 243.831 263.63 241.181 264.862 238.379 C 266.192 235.437 267.09 232.319 267.529 229.121 C 267.954 226.103 267.454 223.872 266.029 222.447 C 264.386 220.926 262.191 220.145 259.956 220.29 L 248.717 220.252 Z M 163.697 114.783 L 175.639 114.783 L 175.639 196.103 L 145.033 196.103 C 139.479 196.103 135.266 194.513 132.397 191.335 C 129.527 188.157 128.089 183.512 128.083 177.402 C 128.111 172.462 128.846 167.552 130.267 162.821 C 131.76 157.699 133.616 152.691 135.822 147.833 C 138.099 142.834 140.59 137.86 143.293 132.91 C 145.996 127.96 148.625 123.159 151.18 118.505 L 131.276 118.505 L 131.276 114.802 L 157.726 114.802 C 155.591 120.227 153.545 125.337 151.588 130.132 C 149.632 134.928 147.944 139.751 146.524 144.602 C 145.09 149.507 143.952 154.493 143.117 159.535 C 142.231 165.088 141.801 170.704 141.83 176.328 C 141.83 181.438 142.719 185.389 144.496 188.178 C 146.274 190.967 149.511 192.36 154.208 192.353 L 163.271 192.353 L 163.697 114.783 Z M 275.008 195.556 L 244.606 195.556 C 244.045 195.635 243.479 195.668 242.912 195.658 C 242.441 195.669 241.97 195.635 241.505 195.556 C 240.431 195.482 239.903 192.547 239.903 186.733 C 239.903 185.03 239.996 181.503 240.181 176.18 C 240.879 152.461 241.224 138.174 241.218 133.316 C 241.282 130.304 241.14 127.292 240.792 124.299 C 240.462 122.331 239.673 120.47 238.487 118.865 C 238.117 118.254 238.691 117.393 240.227 116.301 C 241.983 115.097 243.879 114.115 245.874 113.375 C 247.622 112.605 249.521 112.238 251.429 112.301 C 252.559 112.376 253.123 115.412 253.123 121.43 C 253.123 123.207 253.062 125.463 252.938 128.197 L 252.836 131.678 C 252.781 137.232 252.704 144.377 252.605 153.109 C 252.507 161.842 252.46 168.539 252.466 173.199 C 252.466 176.966 252.559 180.17 252.744 182.836 C 252.877 185.159 253.256 187.461 253.873 189.705 L 265.075 189.705 C 267.812 184.354 269.388 178.487 269.704 172.486 C 269.833 170.847 270.296 170.023 271.12 170.023 C 271.805 170.023 272.342 170.569 272.713 171.662 C 273.919 175.26 274.926 178.923 275.731 182.632 C 277.045 188.187 277.702 192.22 277.702 194.732 C 277.619 195.278 276.758 195.556 275.008 195.556 Z M 384.336 214.281 C 386.9 214.281 388.187 214.624 388.187 215.309 C 388.187 217.778 387.545 221.725 386.261 227.15 C 384.978 232.575 383.96 236.352 383.206 238.481 C 383.051 238.9 382.808 239.283 382.493 239.601 C 382.294 239.84 382.007 239.99 381.697 240.018 C 381.282 239.996 380.908 239.761 380.706 239.398 C 380.38 238.835 380.201 238.197 380.188 237.546 C 379.946 231.971 378.493 226.516 375.93 221.558 C 373.541 224.224 371.471 228.258 369.718 233.658 C 368.009 239.461 366.77 245.393 366.015 251.396 C 364.984 258.906 364.278 265.946 363.895 272.512 C 363.697 275.253 363.602 278.088 363.608 281.02 C 363.608 287.457 364.392 291.833 365.959 294.148 C 366.459 294.9 365.283 295.601 362.432 296.249 C 359.669 296.887 356.844 297.213 354.007 297.221 L 352.406 297.119 C 351.406 297.052 350.906 294.863 350.906 290.556 C 350.906 287.827 351.156 283.557 351.656 277.743 C 352.039 272.485 352.634 267.118 353.443 261.644 C 352.466 262.138 351.421 262.485 350.341 262.671 C 349.428 262.864 348.498 262.966 347.564 262.977 C 344.624 263.056 341.89 261.469 340.5 258.876 C 339.407 256.963 338.57 254.915 338.01 252.784 C 337.418 250.562 336.862 247.905 336.362 244.832 C 336.112 243.471 335.936 242.258 335.844 241.194 C 335.751 240.129 335.64 239.268 335.52 238.583 C 334.761 233.454 334.258 230.242 334.011 228.946 C 333.943 228.6 333.786 227.712 333.539 226.279 C 333.328 225 332.949 223.755 332.409 222.576 C 332.058 221.677 331.404 220.93 330.558 220.466 C 330.058 220.262 330.104 219.91 330.696 219.392 C 331.319 218.862 331.981 218.382 332.678 217.957 C 333.125 217.703 333.549 217.412 333.946 217.087 C 334.261 216.948 335.168 216.457 336.677 215.596 C 337.866 214.843 339.226 214.404 340.63 214.319 C 340.921 214.341 341.205 214.409 341.472 214.522 C 342.656 214.993 343.582 215.946 344.018 217.142 C 344.637 218.823 345.107 220.555 345.425 222.317 C 345.864 224.502 346.397 227.85 347.027 232.362 C 347.277 234.547 347.499 236.194 347.684 237.287 C 348.248 241.26 349.024 245.2 350.008 249.09 C 350.915 252.472 352.345 254.883 354.294 256.321 C 358.121 234.855 364.333 221.697 372.93 216.846 L 373.208 216.642 C 374.186 216.097 375.232 215.682 376.318 215.411 C 377.011 215.141 377.737 214.967 378.475 214.893 L 378.577 214.893 C 380.469 214.482 382.4 214.278 384.336 214.281 Z M 73.592 373.623 C 73.6 375.434 73.315 377.235 72.75 378.956 C 71.733 383.087 69.582 386.852 66.538 389.824 C 63.413 392.785 59.878 395.28 56.04 397.23 C 52.567 399.132 48.702 400.21 44.745 400.378 C 44.552 400.392 44.357 400.357 44.181 400.276 C 43.866 400.276 43.718 400.276 43.718 400.174 C 43.255 397.921 42.56 395.721 41.644 393.611 C 40.7 391.426 39.466 388.933 37.941 386.13 C 36.104 382.867 34.531 379.461 33.238 375.947 C 31.109 369.718 29.993 363.189 29.933 356.608 C 29.92 353.789 30.139 350.974 30.59 348.192 C 31.271 344.226 32.519 340.379 34.293 336.768 C 35.924 333.346 38.192 330.266 40.977 327.696 C 44.716 324.424 48.999 321.836 53.633 320.049 C 58.074 318.282 62.836 317.462 67.612 317.642 C 67.862 317.642 67.982 317.948 67.982 318.568 L 67.982 318.975 C 67.684 323.013 66.992 327.014 65.918 330.918 C 65.101 334.541 64.094 338.12 62.9 341.638 C 62.529 342.656 62.02 343.175 61.4 343.175 C 60.991 343.144 60.633 342.887 60.474 342.508 C 60.194 341.949 60.033 341.337 60.002 340.712 C 59.796 334.791 58.212 328.999 55.373 323.798 C 53.564 324.433 51.876 325.372 50.383 326.576 C 48.582 328.037 47.079 329.831 45.958 331.862 C 44.413 334.708 43.29 337.765 42.625 340.934 C 41.903 344.25 41.54 347.632 41.542 351.025 C 41.527 351.813 41.558 352.602 41.635 353.386 L 42.199 352.979 C 44.506 351.537 47.057 350.53 49.726 350.007 C 52.571 349.393 55.472 349.083 58.382 349.081 C 60.482 349.046 62.58 349.236 64.64 349.646 C 66.371 350.025 67.232 350.479 67.232 351.025 C 67.232 355.265 65.193 359.505 61.113 363.745 C 60.233 364.671 59.576 365.18 59.141 365.18 C 58.524 365.18 58.117 364.393 57.919 362.82 C 57.358 357.882 54.345 355.413 48.883 355.413 C 46.486 355.432 44.105 355.813 41.82 356.543 C 42.558 363.104 44.238 369.524 46.81 375.604 L 49.818 381.557 C 52.577 386.494 54.336 390.525 55.095 393.648 C 56.322 392.812 57.427 391.812 58.382 390.676 C 60.141 388.491 61.305 385.383 61.872 381.354 C 61.945 380.671 61.976 379.984 61.965 379.298 C 61.965 376.021 61.039 374.207 59.234 373.864 C 58.669 373.725 58.965 373.197 60.159 372.272 C 60.965 371.595 61.833 370.997 62.751 370.485 C 63.066 370.343 63.742 369.982 64.779 369.402 C 65.723 368.866 66.715 368.42 67.741 368.069 C 68.522 367.777 69.363 367.691 70.185 367.819 C 72.463 368.337 73.599 370.272 73.592 373.623 Z M 376.521 196.14 L 346.128 196.14 C 345.567 196.219 345 196.252 344.434 196.242 C 343.96 196.253 343.486 196.219 343.017 196.14 C 341.953 196.066 341.416 193.131 341.416 187.317 C 341.416 185.614 341.508 182.087 341.703 176.764 C 342.388 153.045 342.734 138.758 342.74 133.9 C 342.799 130.889 342.656 127.876 342.314 124.883 C 341.977 122.918 341.187 121.058 340.009 119.449 C 339.629 118.838 340.212 117.977 341.749 116.885 C 343.503 115.679 345.4 114.696 347.396 113.959 C 349.127 113.196 351.006 112.828 352.895 112.885 C 354.025 112.96 354.589 115.996 354.589 122.014 C 354.589 123.791 354.534 126.05 354.404 128.781 L 354.312 132.262 C 354.251 137.816 354.173 144.961 354.08 153.693 C 353.988 162.426 353.939 169.123 353.932 173.783 C 353.932 177.55 354.025 180.754 354.219 183.42 C 354.349 185.744 354.727 188.047 355.349 190.289 L 366.541 190.289 C 369.282 184.94 370.86 179.072 371.17 173.07 C 371.29 171.431 371.762 170.607 372.577 170.607 C 373.392 170.607 373.799 171.153 374.179 172.246 C 375.38 175.845 376.385 179.508 377.188 183.216 C 378.509 188.771 379.169 192.804 379.169 195.316 C 379.15 195.862 378.28 196.14 376.521 196.14 Z M 465.776 195.556 C 463.021 196.2 460.201 196.533 457.37 196.547 L 455.75 196.435 C 454.516 196.373 453.898 193.408 453.898 187.539 C 453.898 184.641 454 181.984 454.185 179.67 L 454.278 176.892 C 454.278 175.59 454.405 169.968 454.657 160.025 C 455.102 147.601 455.324 138.8 455.324 133.622 C 455.388 130.579 455.245 127.536 454.898 124.512 C 454.559 122.53 453.764 120.654 452.574 119.032 C 452.195 118.412 452.778 117.551 454.333 116.44 C 456.101 115.223 458.013 114.234 460.027 113.496 C 461.774 112.719 463.671 112.346 465.581 112.403 C 466.724 112.477 467.294 115.653 467.294 121.93 C 467.294 123.725 467.229 125.932 467.1 128.549 L 467.007 132.076 C 466.877 136.698 466.766 142.942 466.674 150.804 C 466.581 158.667 466.541 165.589 466.553 171.569 C 466.553 177.228 466.714 181.818 467.035 185.335 C 467.356 188.853 468.115 191.545 469.312 193.408 C 469.858 194.167 468.664 194.88 465.785 195.528 L 465.776 195.556 Z M 75.164 275.966 C 75.157 276.938 75.064 277.907 74.886 278.863 C 73.807 284.036 70.779 288.211 65.804 291.389 C 60.547 294.692 54.832 297.206 48.844 298.851 L 48.178 299.055 C 47.419 299.258 46.937 299.258 46.752 299.055 C 46.677 298.979 46.572 298.942 46.465 298.953 C 42.067 296.499 38.296 293.062 35.448 288.908 C 34.451 287.493 33.564 286.005 32.791 284.455 C 32.193 283.266 31.877 281.954 31.866 280.622 C 31.875 279.763 32.071 278.917 32.44 278.141 C 32.883 277.255 33.515 276.478 34.291 275.864 C 35.185 275.22 36.158 274.697 37.189 274.309 L 41.04 273.17 C 43.419 272.485 44.41 272.513 44.03 273.272 C 43.704 273.949 43.542 274.695 43.558 275.447 C 43.579 276.57 43.821 277.678 44.271 278.706 C 44.711 279.774 45.218 280.813 45.789 281.817 C 46.326 282.742 46.715 283.418 46.882 283.835 C 47.842 285.541 49.042 287.1 50.446 288.464 C 51.932 289.955 53.539 291.321 55.251 292.546 C 57.579 291.562 59.574 289.929 61 287.843 C 62.518 285.863 63.365 283.45 63.416 280.956 C 63.415 280.255 63.321 279.558 63.138 278.882 C 62.759 277.281 62.199 275.729 61.472 274.253 C 60.728 272.822 59.794 271.498 58.694 270.319 C 57.306 268.738 54.581 266.048 50.52 262.246 C 50.712 262.382 49.446 261.206 46.724 258.719 C 43.376 255.588 40.321 252.157 37.596 248.47 C 35.46 245.508 34.328 241.939 34.365 238.287 C 34.357 236.421 34.67 234.566 35.291 232.806 C 36.127 230.158 37.577 227.743 39.522 225.761 C 41.506 223.695 43.799 221.949 46.317 220.586 C 49.406 218.869 52.713 217.58 56.149 216.754 C 59.853 215.891 63.621 215.337 67.415 215.096 C 67.74 215.007 68.088 215.087 68.341 215.309 L 68.341 215.819 C 68.341 218.288 67.678 222.327 66.351 227.937 C 65.024 233.547 64.008 237.308 63.305 239.222 C 63.153 239.649 62.91 240.038 62.592 240.361 C 62.388 240.599 62.099 240.748 61.787 240.777 C 61.37 240.753 60.994 240.52 60.787 240.157 C 60.457 239.595 60.278 238.957 60.268 238.306 C 60.066 232.298 58.482 226.42 55.639 221.123 C 54.69 221.283 53.758 221.544 52.862 221.901 C 51.999 222.206 51.207 222.682 50.529 223.299 L 49.335 224.308 C 48.729 225.087 48.19 225.918 47.724 226.789 C 46.666 228.915 46.082 231.247 46.011 233.621 C 46.038 235.672 46.525 237.69 47.437 239.528 C 48.818 242.48 50.645 245.202 52.853 247.6 C 55.069 250.019 57.982 252.849 61.592 256.09 C 65.203 259.33 67.832 261.848 69.48 263.644 C 73.275 267.791 75.17 271.899 75.164 275.966 Z M 175.02 378.178 C 175.009 379.15 174.913 380.12 174.733 381.076 C 173.647 386.248 170.619 390.423 165.651 393.601 C 160.392 396.889 154.678 399.385 148.691 401.007 L 148.024 401.22 C 147.265 401.424 146.793 401.424 146.598 401.22 C 146.524 401.143 146.42 401.102 146.311 401.109 C 141.911 398.663 138.14 395.228 135.295 391.074 C 134.292 389.661 133.401 388.173 132.629 386.621 C 132.036 385.429 131.72 384.119 131.703 382.788 C 131.712 381.929 131.908 381.083 132.277 380.307 C 132.716 379.418 133.348 378.64 134.128 378.03 C 135.022 377.385 135.996 376.862 137.026 376.474 C 137.22 376.41 138.498 376.021 140.877 375.336 C 143.256 374.651 144.247 374.678 143.867 375.438 C 143.54 376.115 143.379 376.861 143.395 377.613 C 143.416 378.736 143.658 379.843 144.108 380.872 C 144.548 381.94 145.055 382.979 145.626 383.982 C 146.163 384.908 146.552 385.584 146.719 386.001 C 147.68 387.706 148.88 389.265 150.283 390.63 C 151.767 392.126 153.374 393.496 155.088 394.721 C 157.416 393.734 159.411 392.098 160.837 390.009 C 162.349 388.036 163.192 385.634 163.244 383.149 C 163.24 382.448 163.144 381.751 162.957 381.076 C 162.578 379.475 162.02 377.921 161.29 376.447 C 160.55 375.014 159.616 373.69 158.513 372.512 C 157.124 370.92 154.393 368.235 150.339 364.43 C 150.533 364.569 149.265 363.403 146.543 360.912 C 143.197 357.779 140.142 354.349 137.415 350.664 C 135.283 347.7 134.151 344.132 134.184 340.481 C 134.176 338.611 134.488 336.753 135.11 334.991 C 135.946 332.345 137.395 329.933 139.34 327.955 C 141.324 325.889 143.617 324.143 146.136 322.78 C 149.22 321.072 152.526 319.798 155.958 318.993 C 159.661 318.126 163.43 317.572 167.225 317.336 C 167.549 317.247 167.895 317.323 168.15 317.54 L 168.15 318.068 C 168.15 320.537 167.487 324.576 166.16 330.186 C 164.833 335.796 163.818 339.558 163.114 341.471 C 162.962 341.898 162.719 342.287 162.401 342.61 C 162.198 342.847 161.908 342.993 161.596 343.017 C 161.178 342.997 160.801 342.763 160.596 342.397 C 160.271 341.833 160.092 341.196 160.078 340.545 C 159.876 334.538 158.292 328.658 155.449 323.363 C 154.5 323.524 153.569 323.782 152.671 324.131 C 151.797 324.421 150.987 324.877 150.283 325.474 L 149.144 326.511 C 148.541 327.296 148.002 328.128 147.533 329.001 C 146.48 331.129 145.896 333.46 145.821 335.833 C 145.847 337.881 146.335 339.896 147.246 341.73 C 148.626 344.687 150.452 347.413 152.662 349.812 C 154.884 352.226 157.8 355.055 161.411 358.302 C 165.114 361.607 167.706 364.134 169.298 365.856 C 173.107 369.997 175.014 374.105 175.02 378.178 Z M 165.001 216.725 L 177.184 216.725 L 177.184 299.248 L 165.001 299.248 L 165.001 244.313 L 142.116 244.313 L 142.116 299.248 L 129.942 299.248 L 129.942 216.725 L 142.116 216.725 L 142.116 240.536 L 165.001 240.536 L 165.001 216.725 Z" style=""/>
</svg>