<svg version="1.1" id="Layer_1" xmlns="http://www.w3.org/2000/svg" xmlns:xlink="http://www.w3.org/1999/xlink" x="0px" y="0px"
	 width="100%" viewBox="0 0 895 280" enable-background="new 0 0 895 280" xml:space="preserve">
<path fill="#020202" opacity="1.000000" stroke="none" 
	d="
M4.000000,1.000000 
	C301.272858,1.000000 598.545715,1.000000 895.909302,1.000000 
	C895.909302,94.253807 895.909302,187.507736 895.909302,281.000000 
	C598.973206,281.000000 301.946289,281.000000 4.457717,280.531342 
	C3.997350,187.041794 3.998675,94.020897 4.000000,1.000000 
M27.634272,49.499828 
	C27.634272,117.931160 27.634272,186.362488 27.634272,254.821075 
	C96.170029,254.821075 164.209961,254.821075 232.561783,254.821075 
	C232.561783,246.335220 232.561783,238.207138 232.561783,229.580872 
	C241.120590,229.580872 249.382950,229.580872 257.629547,229.580872 
	C257.629547,195.191666 257.629547,161.313446 257.629547,127.124207 
	C249.139526,127.124207 241.014496,127.124207 232.263870,127.124207 
	C232.263870,101.447258 232.263870,76.075310 232.263870,50.367950 
	C223.532074,50.367950 215.424789,50.367950 206.847412,50.367950 
	C206.847412,41.787582 206.847412,33.543373 206.847412,25.163811 
	C146.830704,25.163811 87.292839,25.163811 27.634256,25.163811 
	C27.634256,33.172176 27.634256,40.836006 27.634272,49.499828 
M283.634155,116.495834 
	C283.634155,119.937546 283.634155,123.379257 283.634155,126.826294 
	C309.507996,126.826294 334.875458,126.826294 360.666779,126.826294 
	C360.666779,122.546219 360.666779,118.622025 360.666779,114.285728 
	C364.999878,114.285728 368.919830,114.285728 372.935760,114.285728 
	C372.935760,97.111595 372.935760,80.370811 372.935760,63.015915 
	C368.673676,63.015915 364.630920,63.015915 360.269958,63.015915 
	C360.269958,54.307430 360.269958,46.206829 360.269958,37.648872 
	C356.007507,37.648872 352.083130,37.648872 347.547668,37.648872 
	C347.547668,33.148994 347.547668,29.104439 347.547668,25.184631 
	C325.861847,25.184631 304.803192,25.184631 283.634155,25.184631 
	C283.634155,55.531841 283.634155,85.513390 283.634155,116.495834 
M283.634155,181.499786 
	C283.634155,205.927902 283.634155,230.356003 283.634155,254.841553 
	C309.490479,254.841553 334.864655,254.841553 360.654144,254.841553 
	C360.654144,250.573166 360.654144,246.644501 360.654144,242.308807 
	C364.977539,242.308807 368.898407,242.308807 372.947754,242.308807 
	C372.947754,225.134476 372.947754,208.391891 372.947754,191.038300 
	C368.694611,191.038300 364.649200,191.038300 360.114014,191.038300 
	C360.114014,182.209045 360.114014,173.981018 360.114014,165.488617 
	C355.783386,165.488617 351.987915,165.488617 347.575439,165.488617 
	C347.575439,161.163239 347.575439,157.116943 347.575439,153.169601 
	C325.882568,153.169601 304.815491,153.169601 283.634155,153.169601 
	C283.634155,162.513275 283.634155,171.506531 283.634155,181.499786 
M846.822388,36.508987 
	C846.822388,45.284115 846.822388,54.059238 846.822388,62.820221 
	C833.733276,62.820221 821.195007,62.820221 808.275574,62.820221 
	C808.275574,50.046459 808.275574,37.632935 808.275574,25.062618 
	C799.656555,25.062618 791.425110,25.062618 783.108215,25.062618 
	C783.108215,59.168297 783.108215,93.032944 783.108215,126.886292 
	C791.636597,126.886292 799.875916,126.886292 808.521851,126.886292 
	C808.521851,109.847549 808.521851,93.096375 808.521851,76.362473 
	C821.481934,76.362473 834.025085,76.362473 846.987671,76.362473 
	C846.987671,93.458511 846.987671,110.192314 846.987671,126.877380 
	C855.657776,126.877380 863.898193,126.877380 872.187988,126.877380 
	C872.187988,92.827515 872.187988,59.078213 872.187988,25.182224 
	C863.656982,25.182224 855.303162,25.182224 846.822388,25.182224 
	C846.822388,28.864767 846.822388,32.187958 846.822388,36.508987 
M603.646118,229.501053 
	C603.646118,225.395462 603.646118,221.289886 603.646118,216.678162 
	C625.194702,216.678162 646.235535,216.678162 667.326965,216.678162 
	C667.326965,199.433823 667.326965,182.716339 667.326965,165.578705 
	C663.093628,165.578705 659.171997,165.578705 654.679565,165.578705 
	C654.679565,161.115982 654.679565,157.062912 654.679565,153.169861 
	C633.039429,153.169861 611.981689,153.169861 590.513550,153.169861 
	C590.513550,157.446365 590.513550,161.360489 590.513550,165.686203 
	C586.156921,165.686203 582.210815,165.686203 578.177734,165.686203 
	C578.177734,191.388107 578.177734,216.659454 578.177734,242.547775 
	C582.406982,242.547775 586.461426,242.547775 590.923828,242.547775 
	C590.923828,247.072571 590.923828,250.994690 590.923828,254.866974 
	C612.411926,254.866974 633.459106,254.866974 654.549805,254.866974 
	C654.549805,250.630188 654.549805,246.723862 654.549805,242.339874 
	C637.545776,242.339874 620.811157,242.339874 603.646118,242.339874 
	C603.646118,238.078583 603.646118,234.289291 603.646118,229.501053 
M475.644287,105.396515 
	C475.644287,78.631828 475.644287,51.867138 475.644287,25.119343 
	C466.771454,25.119343 458.527161,25.119343 449.827820,25.119343 
	C449.827820,54.997093 449.827820,84.568237 449.827820,114.097549 
	C436.931244,114.097549 424.498108,114.097549 411.576202,114.097549 
	C411.576202,84.274796 411.576202,54.705719 411.576202,25.090416 
	C402.832336,25.090416 394.584320,25.090416 386.276398,25.090416 
	C386.276398,54.923065 386.276398,84.474159 386.276398,114.470291 
	C390.492523,114.470291 394.429901,114.470291 398.941895,114.470291 
	C398.941895,118.955582 398.941895,123.012779 398.941895,126.961441 
	C420.468964,126.961441 441.410645,126.961441 462.918640,126.961441 
	C462.918640,122.689171 462.918640,118.629684 462.918640,114.181595 
	C467.428650,114.181595 471.373260,114.181595 475.644257,114.181595 
	C475.644257,111.304626 475.644257,108.831017 475.644287,105.396515 
M730.498169,242.354080 
	C722.419922,242.354080 714.341675,242.354080 705.798096,242.354080 
	C705.798096,233.419632 705.798096,225.182343 705.798096,217.193115 
	C697.077698,217.193115 688.846130,217.193115 680.581909,217.193115 
	C680.581909,225.674301 680.581909,233.769272 680.581909,242.469437 
	C684.829651,242.469437 688.875061,242.469437 693.304565,242.469437 
	C693.304565,246.999100 693.304565,250.928284 693.304565,254.907745 
	C714.791382,254.907745 735.851562,254.907745 757.304565,254.907745 
	C757.304565,250.694504 757.304565,246.760330 757.304565,242.226532 
	C761.737732,242.226532 765.786499,242.226532 769.642944,242.226532 
	C769.642944,224.887009 769.642944,208.158752 769.642944,190.917664 
	C748.240051,190.917664 727.199280,190.917664 706.243896,190.917664 
	C706.243896,182.290451 706.243896,174.184189 706.243896,165.979156 
	C719.019104,165.979156 731.557373,165.979156 744.549133,165.979156 
	C744.549133,170.215591 744.549133,174.126617 744.549133,178.095078 
	C753.255615,178.095078 761.501587,178.095078 769.769287,178.095078 
	C769.769287,173.872665 769.769287,169.939789 769.769287,165.587524 
	C765.586914,165.587524 761.638367,165.587524 757.123291,165.587524 
	C757.123291,161.117737 757.123291,157.058578 757.123291,153.183411 
	C735.503784,153.183411 714.460022,153.183411 693.022461,153.183411 
	C693.022461,157.490753 693.022461,161.427567 693.022461,165.746902 
	C688.682068,165.746902 684.737671,165.746902 680.627686,165.746902 
	C680.627686,174.377548 680.627686,182.613342 680.627686,191.248352 
	C684.834412,191.248352 688.774597,191.248352 693.286682,191.248352 
	C693.286682,195.688461 693.286682,199.742615 693.286682,204.202301 
	C710.624878,204.202301 727.379578,204.202301 744.103455,204.202301 
	C744.103455,217.060608 744.103455,229.489716 744.103455,242.354095 
	C739.743591,242.354095 735.621033,242.354095 730.498169,242.354080 
M708.597656,114.351341 
	C707.734924,113.169212 706.164490,112.009895 706.125427,110.801201 
	C705.891479,103.546059 706.009399,96.279556 706.009399,89.157532 
	C697.132019,89.157532 688.899292,89.157532 680.548279,89.157532 
	C680.548279,97.608810 680.548279,105.710167 680.548279,114.408035 
	C684.766052,114.408035 688.819275,114.408035 693.257446,114.408035 
	C693.257446,118.925903 693.257446,122.859428 693.257446,126.936462 
	C714.736633,126.936462 735.793945,126.936462 757.252197,126.936462 
	C757.252197,122.756500 757.252197,118.824402 757.252197,114.298447 
	C761.690125,114.298447 765.748352,114.298447 769.673523,114.298447 
	C769.673523,96.957809 769.673523,80.221489 769.673523,62.974358 
	C748.299194,62.974358 727.255493,62.974358 706.395996,62.974358 
	C706.395996,54.241383 706.395996,46.028965 706.395996,37.951874 
	C719.203857,37.951874 731.622925,37.951874 744.489502,37.951874 
	C744.489502,42.158813 744.489502,46.076088 744.489502,50.132225 
	C753.203918,50.132225 761.462708,50.132225 769.804321,50.132225 
	C769.804321,45.934830 769.804321,41.988747 769.804321,37.420387 
	C765.562012,37.420387 761.512329,37.420387 757.049805,37.420387 
	C757.049805,32.890327 757.049805,28.968960 757.049805,25.153412 
	C735.556824,25.153412 714.510681,25.153412 693.065063,25.153412 
	C693.065063,29.427917 693.065063,33.363117 693.065063,37.868721 
	C688.618042,37.868721 684.572937,37.868721 680.607666,37.868721 
	C680.607666,46.564137 680.607666,54.677055 680.607666,63.193947 
	C684.786133,63.193947 688.717896,63.193947 693.232300,63.193947 
	C693.232300,67.637550 693.232300,71.691536 693.232300,76.152847 
	C710.571228,76.152847 727.322754,76.152847 744.129150,76.152847 
	C744.129150,89.013771 744.129150,101.439751 744.129150,114.353798 
	C732.468872,114.353798 721.027039,114.353798 708.597656,114.351341 
M423.499939,216.827988 
	C432.250977,216.827988 441.002014,216.827988 449.635925,216.827988 
	C449.635925,225.721863 449.635925,233.944748 449.635925,242.605331 
	C432.546295,242.605331 415.808167,242.605331 399.057190,242.605331 
	C399.057190,246.985794 399.057190,250.913132 399.057190,254.899445 
	C420.355072,254.899445 441.403015,254.899445 462.859253,254.899445 
	C462.859253,250.684036 462.859253,246.751587 462.859253,242.256042 
	C467.315216,242.256042 471.374817,242.256042 475.266174,242.256042 
	C475.266174,212.141891 475.266174,182.600784 475.266174,153.165909 
	C466.652252,153.165909 458.422668,153.165909 449.820007,153.165909 
	C449.820007,170.258606 449.820007,186.997131 449.820007,203.610931 
	C436.896027,203.610931 424.360840,203.610931 411.365326,203.610931 
	C411.365326,186.507324 411.365326,169.780426 411.365326,153.162567 
	C402.659973,153.162567 394.429565,153.162567 386.296539,153.162567 
	C386.296539,170.251968 386.296539,186.985596 386.296539,204.115906 
	C390.519958,204.115906 394.448273,204.115906 398.966614,204.115906 
	C398.966614,208.537170 398.966614,212.584869 398.966614,216.827988 
	C407.216614,216.827988 414.858276,216.827988 423.499939,216.827988 
M544.491821,165.645370 
	C551.275513,165.645370 558.059204,165.645370 564.833069,165.645370 
	C564.833069,161.047562 564.833069,156.997208 564.833069,153.092361 
	C539.236694,153.092361 513.999146,153.092361 488.624756,153.092361 
	C488.624756,157.288895 488.624756,161.198227 488.624756,165.617035 
	C497.110352,165.617035 505.339783,165.617035 514.007019,165.617035 
	C514.007019,195.674469 514.007019,225.222656 514.007019,254.957230 
	C522.696228,254.957230 530.934082,254.957230 539.645386,254.957230 
	C539.645386,252.935364 539.645386,251.142685 539.645386,249.350006 
	C539.645386,222.877686 539.678589,196.405243 539.598328,169.933167 
	C539.589539,167.033585 539.831909,164.945389 544.491821,165.645370 
M488.354462,65.499832 
	C488.354462,81.607689 488.354462,97.715546 488.354462,114.415314 
	C492.776489,114.415314 496.826080,114.415314 501.258240,114.415314 
	C501.258240,118.928360 501.258240,122.859146 501.258240,126.980232 
	C518.429565,126.980232 535.182983,126.980232 552.056763,126.980232 
	C552.056763,122.778313 552.056763,118.707809 552.056763,114.276825 
	C539.313721,114.276825 526.890198,114.276825 514.037842,114.276825 
	C514.037842,84.376686 514.037842,54.836674 514.037842,25.054714 
	C505.362823,25.054714 497.123413,25.054714 488.354492,25.054714 
	C488.354492,38.290958 488.354492,51.395390 488.354462,65.499832 
M590.827393,33.553215 
	C590.827393,30.771519 590.827393,27.989822 590.827393,25.066238 
	C582.074951,25.066238 573.839600,25.066238 565.431519,25.066238 
	C565.431519,54.869270 565.431519,84.414833 565.431519,114.576660 
	C569.723755,114.576660 573.766785,114.576660 578.201355,114.576660 
	C578.201355,119.114746 578.201355,123.037399 578.201355,126.942215 
	C595.358215,126.942215 612.098206,126.942215 628.798950,126.942215 
	C628.798950,122.657982 628.798950,118.634308 628.798950,114.233826 
	C616.005676,114.233826 603.599976,114.233826 590.827393,114.233826 
	C590.827393,87.410324 590.827393,60.976212 590.827393,33.553215 
M659.437378,127.189903 
	C662.043396,127.189903 664.649414,127.189903 667.422852,127.189903 
	C667.422852,92.846077 667.422852,59.086281 667.422852,25.198795 
	C658.845886,25.198795 650.495178,25.198795 642.267334,25.198795 
	C642.267334,59.346497 642.267334,93.104881 642.267334,127.189903 
	C647.841980,127.189903 653.147034,127.189903 659.437378,127.189903 
z"/>
<path fill="#FFFFFF" opacity="1.000000" stroke="none" 
	d="
M3.500000,1.000000 
	C3.998675,94.020897 3.997350,187.041794 3.998012,280.531342 
	C3.001751,281.000000 2.003502,281.000000 1.002627,281.000000 
	C1.000000,188.996475 0.990284,96.992943 1.101339,4.989562 
	C1.102856,3.732515 -0.942645,0.687488 3.500000,1.000000 
z"/>
<path fill="#FDFDFD" opacity="1.000000" stroke="none" 
	d="
M27.634264,48.999832 
	C27.634256,40.836006 27.634256,33.172176 27.634256,25.163811 
	C87.292839,25.163811 146.830704,25.163811 206.847412,25.163811 
	C206.847412,33.543373 206.847412,41.787582 206.847412,50.367950 
	C215.424789,50.367950 223.532074,50.367950 232.263870,50.367950 
	C232.263870,76.075310 232.263870,101.447258 232.263870,127.124207 
	C241.014496,127.124207 249.139526,127.124207 257.629547,127.124207 
	C257.629547,161.313446 257.629547,195.191666 257.629547,229.580872 
	C249.382950,229.580872 241.120590,229.580872 232.561783,229.580872 
	C232.561783,238.207138 232.561783,246.335220 232.561783,254.821075 
	C164.209961,254.821075 96.170029,254.821075 27.634272,254.821075 
	C27.634272,186.362488 27.634272,117.931160 27.634264,48.999832 
M181.174911,176.987717 
	C181.174911,169.055130 181.174911,161.122559 181.174911,153.149902 
	C155.373093,153.149902 130.041824,153.149902 104.759933,153.149902 
	C104.759933,161.679855 104.759933,169.873901 104.759933,178.145737 
	C105.791397,178.241074 106.442673,178.353638 107.094002,178.353912 
	C130.714981,178.363831 154.335968,178.371841 177.956894,178.337341 
	C179.068924,178.335709 180.180374,177.943039 181.137253,178.691422 
	C181.137253,186.974533 181.137253,195.257645 181.137253,203.714905 
	C146.875122,203.714905 113.010033,203.714905 78.726608,203.714905 
	C78.726608,186.696503 78.726608,169.950958 78.726608,153.074524 
	C70.068481,153.074524 61.831226,153.074524 53.385281,153.074524 
	C53.385281,178.575058 53.385281,203.811768 53.385281,229.274841 
	C104.586456,229.274841 155.592758,229.274841 207.071045,229.274841 
	C207.071045,220.673035 207.071045,212.434845 207.071045,203.948944 
	C215.664795,203.948944 223.789536,203.948944 232.039185,203.948944 
	C232.039185,186.808960 232.039185,169.938568 232.039185,153.143219 
	C223.460648,153.143219 215.226212,153.143219 206.689407,153.143219 
	C206.689407,161.583130 206.689407,169.692841 206.689407,177.872284 
	C197.970184,177.872284 189.562164,177.872284 181.174911,176.987717 
M139.497681,127.187714 
	C144.760849,127.187714 150.024033,127.187714 155.795410,127.187714 
	C155.795410,118.335205 155.795410,110.101555 155.795410,101.995033 
	C164.537323,101.995033 172.754227,101.995033 181.280060,101.995033 
	C181.280060,110.454277 181.280060,118.564598 181.280060,126.781021 
	C189.948334,126.781021 198.289368,126.781021 206.449966,126.781021 
	C206.449966,109.640511 206.449966,92.908875 206.449966,75.690552 
	C197.843018,75.690552 189.607468,75.690552 181.072876,75.690552 
	C181.072876,67.081284 181.072876,58.961891 181.072876,50.654785 
	C138.363480,50.654785 95.973541,50.654785 53.395294,50.654785 
	C53.395294,76.194633 53.395294,101.438530 53.395294,126.934982 
	C61.852161,126.934982 70.090897,126.934982 78.948135,126.934982 
	C78.948135,109.902145 78.948135,93.039406 78.948135,76.284218 
	C104.826500,76.284218 130.086685,76.284218 155.273987,76.284218 
	C155.273987,84.810989 155.273987,93.054680 155.273987,101.760178 
	C138.181168,101.760178 121.431137,101.760178 104.703857,101.760178 
	C104.703857,110.465050 104.703857,118.693062 104.703857,127.187714 
	C116.197105,127.187714 127.347702,127.187714 139.497681,127.187714 
z"/>
<path fill="#FDFDFD" opacity="1.000000" stroke="none" 
	d="
M283.634155,115.995384 
	C283.634155,85.513390 283.634155,55.531841 283.634155,25.184631 
	C304.803192,25.184631 325.861847,25.184631 347.547668,25.184631 
	C347.547668,29.104439 347.547668,33.148994 347.547668,37.648872 
	C352.083130,37.648872 356.007507,37.648872 360.269958,37.648872 
	C360.269958,46.206829 360.269958,54.307430 360.269958,63.015915 
	C364.630920,63.015915 368.673676,63.015915 372.935760,63.015915 
	C372.935760,80.370811 372.935760,97.111595 372.935760,114.285728 
	C368.919830,114.285728 364.999878,114.285728 360.666779,114.285728 
	C360.666779,118.622025 360.666779,122.546219 360.666779,126.826294 
	C334.875458,126.826294 309.507996,126.826294 283.634155,126.826294 
	C283.634155,123.379257 283.634155,119.937546 283.634155,115.995384 
M347.644592,95.499893 
	C347.644592,89.070084 347.644592,82.640274 347.644592,76.236267 
	C334.507111,76.236267 322.075989,76.236267 309.516174,76.236267 
	C309.516174,89.016052 309.516174,101.548882 309.516174,114.123695 
	C322.294983,114.123695 334.728943,114.123695 347.644562,114.123695 
	C347.644562,108.087585 347.644562,102.293198 347.644592,95.499893 
M321.502075,37.622364 
	C317.553345,37.622364 313.604614,37.622364 309.418457,37.622364 
	C309.418457,46.317230 309.418457,54.532917 309.418457,62.969360 
	C317.887360,62.969360 326.112976,62.969360 334.581421,62.969360 
	C334.581421,54.532463 334.581421,46.316772 334.581421,37.622349 
	C330.399994,37.622349 326.448700,37.622349 321.502075,37.622364 
z"/>
<path fill="#FDFDFD" opacity="1.000000" stroke="none" 
	d="
M283.634155,180.999786 
	C283.634155,171.506531 283.634155,162.513275 283.634155,153.169601 
	C304.815491,153.169601 325.882568,153.169601 347.575439,153.169601 
	C347.575439,157.116943 347.575439,161.163239 347.575439,165.488617 
	C351.987915,165.488617 355.783386,165.488617 360.114014,165.488617 
	C360.114014,173.981018 360.114014,182.209045 360.114014,191.038300 
	C364.649200,191.038300 368.694611,191.038300 372.947754,191.038300 
	C372.947754,208.391891 372.947754,225.134476 372.947754,242.308807 
	C368.898407,242.308807 364.977539,242.308807 360.654144,242.308807 
	C360.654144,246.644501 360.654144,250.573166 360.654144,254.841553 
	C334.864655,254.841553 309.490479,254.841553 283.634155,254.841553 
	C283.634155,230.356003 283.634155,205.927902 283.634155,180.999786 
M338.440369,203.991791 
	C328.831543,203.991791 319.222717,203.991791 309.536926,203.991791 
	C309.536926,217.040451 309.536926,229.568314 309.536926,242.102722 
	C322.331360,242.102722 334.759888,242.102722 347.266083,242.102722 
	C347.266083,229.287384 347.266083,216.750412 347.266083,203.991791 
	C344.400360,203.991791 341.909668,203.991791 338.440369,203.991791 
M309.173004,175.532578 
	C309.173004,180.632339 309.173004,185.732086 309.173004,190.931625 
	C317.946960,190.931625 326.173218,190.931625 334.554321,190.931625 
	C334.554321,182.453156 334.554321,174.235474 334.554321,165.903961 
	C326.054077,165.903961 317.829041,165.903961 309.173004,165.903961 
	C309.173004,168.967957 309.173004,171.756760 309.173004,175.532578 
z"/>
<path fill="#FEFEFE" opacity="1.000000" stroke="none" 
	d="
M846.822388,36.010067 
	C846.822388,32.187958 846.822388,28.864767 846.822388,25.182224 
	C855.303162,25.182224 863.656982,25.182224 872.187988,25.182224 
	C872.187988,59.078213 872.187988,92.827515 872.187988,126.877380 
	C863.898193,126.877380 855.657776,126.877380 846.987671,126.877380 
	C846.987671,110.192314 846.987671,93.458511 846.987671,76.362473 
	C834.025085,76.362473 821.481934,76.362473 808.521851,76.362473 
	C808.521851,93.096375 808.521851,109.847549 808.521851,126.886292 
	C799.875916,126.886292 791.636597,126.886292 783.108215,126.886292 
	C783.108215,93.032944 783.108215,59.168297 783.108215,25.062618 
	C791.425110,25.062618 799.656555,25.062618 808.275574,25.062618 
	C808.275574,37.632935 808.275574,50.046459 808.275574,62.820221 
	C821.195007,62.820221 833.733276,62.820221 846.822388,62.820221 
	C846.822388,54.059238 846.822388,45.284115 846.822388,36.010067 
z"/>
<path fill="#F9F9F9" opacity="1.000000" stroke="none" 
	d="
M603.646118,230.000519 
	C603.646118,234.289291 603.646118,238.078583 603.646118,242.339874 
	C620.811157,242.339874 637.545776,242.339874 654.549805,242.339874 
	C654.549805,246.723862 654.549805,250.630188 654.549805,254.866974 
	C633.459106,254.866974 612.411926,254.866974 590.923828,254.866974 
	C590.923828,250.994690 590.923828,247.072571 590.923828,242.547775 
	C586.461426,242.547775 582.406982,242.547775 578.177734,242.547775 
	C578.177734,216.659454 578.177734,191.388107 578.177734,165.686203 
	C582.210815,165.686203 586.156921,165.686203 590.513550,165.686203 
	C590.513550,161.360489 590.513550,157.446365 590.513550,153.169861 
	C611.981689,153.169861 633.039429,153.169861 654.679565,153.169861 
	C654.679565,157.062912 654.679565,161.115982 654.679565,165.578705 
	C659.171997,165.578705 663.093628,165.578705 667.326965,165.578705 
	C667.326965,182.716339 667.326965,199.433823 667.326965,216.678162 
	C646.235535,216.678162 625.194702,216.678162 603.646118,216.678162 
	C603.646118,221.289886 603.646118,225.395462 603.646118,230.000519 
M615.512939,203.988831 
	C624.271423,203.988831 633.029907,203.988831 641.758301,203.988831 
	C641.758301,190.952820 641.758301,178.523499 641.758301,165.981476 
	C628.989319,165.981476 616.453125,165.981476 603.895874,165.981476 
	C603.895874,178.731918 603.895874,191.148026 603.895874,203.988831 
	C607.592468,203.988831 611.054626,203.988831 615.512939,203.988831 
z"/>
<path fill="#FAFAFA" opacity="1.000000" stroke="none" 
	d="
M475.644287,105.876968 
	C475.644257,108.831017 475.644257,111.304626 475.644257,114.181595 
	C471.373260,114.181595 467.428650,114.181595 462.918640,114.181595 
	C462.918640,118.629684 462.918640,122.689171 462.918640,126.961441 
	C441.410645,126.961441 420.468964,126.961441 398.941895,126.961441 
	C398.941895,123.012779 398.941895,118.955582 398.941895,114.470291 
	C394.429901,114.470291 390.492523,114.470291 386.276398,114.470291 
	C386.276398,84.474159 386.276398,54.923065 386.276398,25.090416 
	C394.584320,25.090416 402.832336,25.090416 411.576202,25.090416 
	C411.576202,54.705719 411.576202,84.274796 411.576202,114.097549 
	C424.498108,114.097549 436.931244,114.097549 449.827820,114.097549 
	C449.827820,84.568237 449.827820,54.997093 449.827820,25.119343 
	C458.527161,25.119343 466.771454,25.119343 475.644287,25.119343 
	C475.644287,51.867138 475.644287,78.631828 475.644287,105.876968 
z"/>
<path fill="#F9F9F9" opacity="1.000000" stroke="none" 
	d="
M730.998352,242.354095 
	C735.621033,242.354095 739.743591,242.354095 744.103455,242.354095 
	C744.103455,229.489716 744.103455,217.060608 744.103455,204.202301 
	C727.379578,204.202301 710.624878,204.202301 693.286682,204.202301 
	C693.286682,199.742615 693.286682,195.688461 693.286682,191.248352 
	C688.774597,191.248352 684.834412,191.248352 680.627686,191.248352 
	C680.627686,182.613342 680.627686,174.377548 680.627686,165.746902 
	C684.737671,165.746902 688.682068,165.746902 693.022461,165.746902 
	C693.022461,161.427567 693.022461,157.490753 693.022461,153.183411 
	C714.460022,153.183411 735.503784,153.183411 757.123291,153.183411 
	C757.123291,157.058578 757.123291,161.117737 757.123291,165.587524 
	C761.638367,165.587524 765.586914,165.587524 769.769287,165.587524 
	C769.769287,169.939789 769.769287,173.872665 769.769287,178.095078 
	C761.501587,178.095078 753.255615,178.095078 744.549133,178.095078 
	C744.549133,174.126617 744.549133,170.215591 744.549133,165.979156 
	C731.557373,165.979156 719.019104,165.979156 706.243896,165.979156 
	C706.243896,174.184189 706.243896,182.290451 706.243896,190.917664 
	C727.199280,190.917664 748.240051,190.917664 769.642944,190.917664 
	C769.642944,208.158752 769.642944,224.887009 769.642944,242.226532 
	C765.786499,242.226532 761.737732,242.226532 757.304565,242.226532 
	C757.304565,246.760330 757.304565,250.694504 757.304565,254.907745 
	C735.851562,254.907745 714.791382,254.907745 693.304565,254.907745 
	C693.304565,250.928284 693.304565,246.999100 693.304565,242.469437 
	C688.875061,242.469437 684.829651,242.469437 680.581909,242.469437 
	C680.581909,233.769272 680.581909,225.674301 680.581909,217.193115 
	C688.846130,217.193115 697.077698,217.193115 705.798096,217.193115 
	C705.798096,225.182343 705.798096,233.419632 705.798096,242.354080 
	C714.341675,242.354080 722.419922,242.354080 730.998352,242.354095 
z"/>
<path fill="#F9F9F9" opacity="1.000000" stroke="none" 
	d="
M709.091431,114.352570 
	C721.027039,114.353798 732.468872,114.353798 744.129150,114.353798 
	C744.129150,101.439751 744.129150,89.013771 744.129150,76.152847 
	C727.322754,76.152847 710.571228,76.152847 693.232300,76.152847 
	C693.232300,71.691536 693.232300,67.637550 693.232300,63.193947 
	C688.717896,63.193947 684.786133,63.193947 680.607666,63.193947 
	C680.607666,54.677055 680.607666,46.564137 680.607666,37.868721 
	C684.572937,37.868721 688.618042,37.868721 693.065063,37.868721 
	C693.065063,33.363117 693.065063,29.427917 693.065063,25.153412 
	C714.510681,25.153412 735.556824,25.153412 757.049805,25.153412 
	C757.049805,28.968960 757.049805,32.890327 757.049805,37.420387 
	C761.512329,37.420387 765.562012,37.420387 769.804321,37.420387 
	C769.804321,41.988747 769.804321,45.934830 769.804321,50.132225 
	C761.462708,50.132225 753.203918,50.132225 744.489502,50.132225 
	C744.489502,46.076088 744.489502,42.158813 744.489502,37.951874 
	C731.622925,37.951874 719.203857,37.951874 706.395996,37.951874 
	C706.395996,46.028965 706.395996,54.241383 706.395996,62.974358 
	C727.255493,62.974358 748.299194,62.974358 769.673523,62.974358 
	C769.673523,80.221489 769.673523,96.957809 769.673523,114.298447 
	C765.748352,114.298447 761.690125,114.298447 757.252197,114.298447 
	C757.252197,118.824402 757.252197,122.756500 757.252197,126.936462 
	C735.793945,126.936462 714.736633,126.936462 693.257446,126.936462 
	C693.257446,122.859428 693.257446,118.925903 693.257446,114.408035 
	C688.819275,114.408035 684.766052,114.408035 680.548279,114.408035 
	C680.548279,105.710167 680.548279,97.608810 680.548279,89.157532 
	C688.899292,89.157532 697.132019,89.157532 706.009399,89.157532 
	C706.009399,96.279556 705.891479,103.546059 706.125427,110.801201 
	C706.164490,112.009895 707.734924,113.169212 709.091431,114.352570 
z"/>
<path fill="#F9F9F9" opacity="1.000000" stroke="none" 
	d="
M422.999939,216.827988 
	C414.858276,216.827988 407.216614,216.827988 398.966614,216.827988 
	C398.966614,212.584869 398.966614,208.537170 398.966614,204.115906 
	C394.448273,204.115906 390.519958,204.115906 386.296539,204.115906 
	C386.296539,186.985596 386.296539,170.251968 386.296539,153.162567 
	C394.429565,153.162567 402.659973,153.162567 411.365326,153.162567 
	C411.365326,169.780426 411.365326,186.507324 411.365326,203.610931 
	C424.360840,203.610931 436.896027,203.610931 449.820007,203.610931 
	C449.820007,186.997131 449.820007,170.258606 449.820007,153.165909 
	C458.422668,153.165909 466.652252,153.165909 475.266174,153.165909 
	C475.266174,182.600784 475.266174,212.141891 475.266174,242.256042 
	C471.374817,242.256042 467.315216,242.256042 462.859253,242.256042 
	C462.859253,246.751587 462.859253,250.684036 462.859253,254.899445 
	C441.403015,254.899445 420.355072,254.899445 399.057190,254.899445 
	C399.057190,250.913132 399.057190,246.985794 399.057190,242.605331 
	C415.808167,242.605331 432.546295,242.605331 449.635925,242.605331 
	C449.635925,233.944748 449.635925,225.721863 449.635925,216.827988 
	C441.002014,216.827988 432.250977,216.827988 422.999939,216.827988 
z"/>
<path fill="#F9F9F9" opacity="1.000000" stroke="none" 
	d="
M543.990173,165.645447 
	C539.831909,164.945389 539.589539,167.033585 539.598328,169.933167 
	C539.678589,196.405243 539.645386,222.877686 539.645386,249.350006 
	C539.645386,251.142685 539.645386,252.935364 539.645386,254.957230 
	C530.934082,254.957230 522.696228,254.957230 514.007019,254.957230 
	C514.007019,225.222656 514.007019,195.674469 514.007019,165.617035 
	C505.339783,165.617035 497.110352,165.617035 488.624756,165.617035 
	C488.624756,161.198227 488.624756,157.288895 488.624756,153.092361 
	C513.999146,153.092361 539.236694,153.092361 564.833069,153.092361 
	C564.833069,156.997208 564.833069,161.047562 564.833069,165.645370 
	C558.059204,165.645370 551.275513,165.645370 543.990173,165.645447 
z"/>
<path fill="#F9F9F9" opacity="1.000000" stroke="none" 
	d="
M488.354492,64.999832 
	C488.354492,51.395390 488.354492,38.290958 488.354492,25.054714 
	C497.123413,25.054714 505.362823,25.054714 514.037842,25.054714 
	C514.037842,54.836674 514.037842,84.376686 514.037842,114.276825 
	C526.890198,114.276825 539.313721,114.276825 552.056763,114.276825 
	C552.056763,118.707809 552.056763,122.778313 552.056763,126.980232 
	C535.182983,126.980232 518.429565,126.980232 501.258240,126.980232 
	C501.258240,122.859146 501.258240,118.928360 501.258240,114.415314 
	C496.826080,114.415314 492.776489,114.415314 488.354462,114.415314 
	C488.354462,97.715546 488.354462,81.607689 488.354492,64.999832 
z"/>
<path fill="#F9F9F9" opacity="1.000000" stroke="none" 
	d="
M590.827393,34.047657 
	C590.827393,60.976212 590.827393,87.410324 590.827393,114.233826 
	C603.599976,114.233826 616.005676,114.233826 628.798950,114.233826 
	C628.798950,118.634308 628.798950,122.657982 628.798950,126.942215 
	C612.098206,126.942215 595.358215,126.942215 578.201355,126.942215 
	C578.201355,123.037399 578.201355,119.114746 578.201355,114.576660 
	C573.766785,114.576660 569.723755,114.576660 565.431519,114.576660 
	C565.431519,84.414833 565.431519,54.869270 565.431519,25.066238 
	C573.839600,25.066238 582.074951,25.066238 590.827393,25.066238 
	C590.827393,27.989822 590.827393,30.771519 590.827393,34.047657 
z"/>
<path fill="#FAFAFA" opacity="1.000000" stroke="none" 
	d="
M658.944702,127.189903 
	C653.147034,127.189903 647.841980,127.189903 642.267334,127.189903 
	C642.267334,93.104881 642.267334,59.346497 642.267334,25.198795 
	C650.495178,25.198795 658.845886,25.198795 667.422852,25.198795 
	C667.422852,59.086281 667.422852,92.846077 667.422852,127.189903 
	C664.649414,127.189903 662.043396,127.189903 658.944702,127.189903 
z"/>
<path fill="#040404" opacity="1.000000" stroke="none" 
	d="
M138.997986,127.187714 
	C127.347702,127.187714 116.197105,127.187714 104.703857,127.187714 
	C104.703857,118.693062 104.703857,110.465050 104.703857,101.760178 
	C121.431137,101.760178 138.181168,101.760178 155.273987,101.760178 
	C155.273987,93.054680 155.273987,84.810989 155.273987,76.284218 
	C130.086685,76.284218 104.826500,76.284218 78.948135,76.284218 
	C78.948135,93.039406 78.948135,109.902145 78.948135,126.934982 
	C70.090897,126.934982 61.852161,126.934982 53.395294,126.934982 
	C53.395294,101.438530 53.395294,76.194633 53.395294,50.654785 
	C95.973541,50.654785 138.363480,50.654785 181.072876,50.654785 
	C181.072876,58.961891 181.072876,67.081284 181.072876,75.690552 
	C189.607468,75.690552 197.843018,75.690552 206.449966,75.690552 
	C206.449966,92.908875 206.449966,109.640511 206.449966,126.781021 
	C198.289368,126.781021 189.948334,126.781021 181.280060,126.781021 
	C181.280060,118.564598 181.280060,110.454277 181.280060,101.995033 
	C172.754227,101.995033 164.537323,101.995033 155.795410,101.995033 
	C155.795410,110.101555 155.795410,118.335205 155.795410,127.187714 
	C150.024033,127.187714 144.760849,127.187714 138.997986,127.187714 
z"/>
<path fill="#050505" opacity="1.000000" stroke="none" 
	d="
M181.154160,177.872284 
	C189.562164,177.872284 197.970184,177.872284 206.689407,177.872284 
	C206.689407,169.692841 206.689407,161.583130 206.689407,153.143219 
	C215.226212,153.143219 223.460648,153.143219 232.039185,153.143219 
	C232.039185,169.938568 232.039185,186.808960 232.039185,203.948944 
	C223.789536,203.948944 215.664795,203.948944 207.071045,203.948944 
	C207.071045,212.434845 207.071045,220.673035 207.071045,229.274841 
	C155.592758,229.274841 104.586456,229.274841 53.385281,229.274841 
	C53.385281,203.811768 53.385281,178.575058 53.385281,153.074524 
	C61.831226,153.074524 70.068481,153.074524 78.726608,153.074524 
	C78.726608,169.950958 78.726608,186.696503 78.726608,203.714905 
	C113.010033,203.714905 146.875122,203.714905 181.137253,203.714905 
	C181.137253,195.257645 181.137253,186.974533 181.185669,178.252319 
	C181.234085,177.813217 181.154160,177.872284 181.154160,177.872284 
z"/>
<path fill="#010101" opacity="1.000000" stroke="none" 
	d="
M181.263092,177.772858 
	C180.180374,177.943039 179.068924,178.335709 177.956894,178.337341 
	C154.335968,178.371841 130.714981,178.363831 107.094002,178.353912 
	C106.442673,178.353638 105.791397,178.241074 104.759933,178.145737 
	C104.759933,169.873901 104.759933,161.679855 104.759933,153.149902 
	C130.041824,153.149902 155.373093,153.149902 181.174911,153.149902 
	C181.174911,161.122559 181.174911,169.055130 181.164536,177.429993 
	C181.154160,177.872284 181.234085,177.813217 181.263092,177.772858 
z"/>
<path fill="#050505" opacity="1.000000" stroke="none" 
	d="
M347.644592,95.999352 
	C347.644562,102.293198 347.644562,108.087585 347.644562,114.123695 
	C334.728943,114.123695 322.294983,114.123695 309.516174,114.123695 
	C309.516174,101.548882 309.516174,89.016052 309.516174,76.236267 
	C322.075989,76.236267 334.507111,76.236267 347.644592,76.236267 
	C347.644592,82.640274 347.644592,89.070084 347.644592,95.999352 
z"/>
<path fill="#050505" opacity="1.000000" stroke="none" 
	d="
M321.999725,37.622356 
	C326.448700,37.622349 330.399994,37.622349 334.581421,37.622349 
	C334.581421,46.316772 334.581421,54.532463 334.581421,62.969360 
	C326.112976,62.969360 317.887360,62.969360 309.418457,62.969360 
	C309.418457,54.532917 309.418457,46.317230 309.418457,37.622364 
	C313.604614,37.622364 317.553345,37.622364 321.999725,37.622356 
z"/>
<path fill="#050505" opacity="1.000000" stroke="none" 
	d="
M338.929688,203.991791 
	C341.909668,203.991791 344.400360,203.991791 347.266083,203.991791 
	C347.266083,216.750412 347.266083,229.287384 347.266083,242.102722 
	C334.759888,242.102722 322.331360,242.102722 309.536926,242.102722 
	C309.536926,229.568314 309.536926,217.040451 309.536926,203.991791 
	C319.222717,203.991791 328.831543,203.991791 338.929688,203.991791 
z"/>
<path fill="#050505" opacity="1.000000" stroke="none" 
	d="
M309.173004,175.039078 
	C309.173004,171.756760 309.173004,168.967957 309.173004,165.903961 
	C317.829041,165.903961 326.054077,165.903961 334.554321,165.903961 
	C334.554321,174.235474 334.554321,182.453156 334.554321,190.931625 
	C326.173218,190.931625 317.946960,190.931625 309.173004,190.931625 
	C309.173004,185.732086 309.173004,180.632339 309.173004,175.039078 
z"/>
<path fill="#010101" opacity="1.000000" stroke="none" 
	d="
M615.014893,203.988831 
	C611.054626,203.988831 607.592468,203.988831 603.895874,203.988831 
	C603.895874,191.148026 603.895874,178.731918 603.895874,165.981476 
	C616.453125,165.981476 628.989319,165.981476 641.758301,165.981476 
	C641.758301,178.523499 641.758301,190.952820 641.758301,203.988831 
	C633.029907,203.988831 624.271423,203.988831 615.014893,203.988831 
z"/>
</svg>