<svg width="660" height="180" viewBox="0 0 660 180" fill="none" xmlns="http://www.w3.org/2000/svg">
<path fill-rule="evenodd" clip-rule="evenodd" d="M0 0H140V20H160V80H180V160H160V180H0V0ZM160 140V100H140V120H120V100H60V120H120V140H40V100H20V160H140V140H160ZM100 80H60V60H100V80ZM120 60H100V40H40V80H20V20H120V40H140V80H120V60Z" fill="#f2a900"/>
<path fill-rule="evenodd" clip-rule="evenodd" d="M200 0V80H260V70H270V30H260V10H250V0H200ZM250 70V40H220V70H250ZM240 30H220V10H240V30Z" fill="#f2a900"/>
<path fill-rule="evenodd" clip-rule="evenodd" d="M250 100H200V180H260V170H270V130H260V110H250V100ZM240 130V110H220V130H240ZM220 140V170H250V140H220Z" fill="#f2a900"/>
<path d="M360 100H420V110H400V180H380V110H360V100Z" fill="#f2a900"/>
<path d="M300 0H280V70H290V80H340V70H350V0H330V70H300V0Z" fill="#f2a900"/>
<path d="M280 140V100H300V140H330V100H350V170H340V180H290V170H330V150H290V140H280Z" fill="#f2a900"/>
<path d="M380 70H410V80H370V70H360V0H380V70Z" fill="#f2a900"/>
<path d="M470 70H440V0H420V70H430V80H470V70Z" fill="#f2a900"/>
<path d="M530 70H560V40H520V30H510V10H520V0H570V10H580V20H560V10H530V30H580V70H570V80H520V70H510V50H530V70Z" fill="#f2a900"/>
<path fill-rule="evenodd" clip-rule="evenodd" d="M490 170V180H440V170H430V110H440V100H490V110H500V150H450V170H490ZM480 140V110H450V140H480Z" fill="#f2a900"/>
<path d="M560 170H530V150H510V170H520V180H570V170H580V130H530V110H560V120H580V110H570V100H520V110H510V130H520V140H560V170Z" fill="#f2a900"/>
<path d="M610 0H590V80H610V40H640V80H660V0H640V30H610V0Z" fill="#f2a900"/>
<path d="M500 0H480V80H500V0Z" fill="#f2a900"/>
</svg>
